<?xml version="1.0" encoding="UTF-8" standalone="no"?>
<!DOCTYPE svg PUBLIC "-//W3C//DTD SVG 1.1//EN" "http://www.w3.org/Graphics/SVG/1.1/DTD/svg11.dtd">
<svg xmlns="http://www.w3.org/2000/svg" version="1.1" viewBox="0 0 889 388">
<g stroke-width="0.00" fill="none" stroke-linecap="butt">
<path stroke="#9c9c9c" vector-effect="non-scaling-stroke" d="
  M 787.02 41.18
  Q 783.25 42.20 779.37 42.00
  Q 774.19 41.73 774.11 41.73
  C 549.68 42.17 325.24 41.37 100.81 41.86
  Q 100.45 41.86 100.50 41.29"
/>
<path stroke="#9c9c9c" vector-effect="non-scaling-stroke" d="
  M 846.57 98.70
  Q 844.41 100.08 844.72 102.12
  Q 845.06 104.34 845.06 104.44
  Q 844.88 195.85 845.13 287.25
  Q 845.13 288.29 846.79 288.26"
/>
<path stroke="#9c9c9c" vector-effect="non-scaling-stroke" d="
  M 784.26 347.74
  Q 784.02 345.99 780.98 346.36
  Q 779.73 346.51 778.48 346.51
  Q 751.53 346.48 723.57 346.52
  Q 722.02 346.52 721.50 347.96"
/>
<path stroke="#9f9ca1" vector-effect="non-scaling-stroke" d="
  M 367.75 347.96
  Q 367.57 346.52 365.75 346.52
  C 302.47 346.46 239.17 346.73 175.89 346.54
  C 169.24 346.52 156.97 346.88 146.93 346.56
  Q 130.00 346.03 103.75 346.93"
/>
<path stroke="#c5c4c6" vector-effect="non-scaling-stroke" d="
  M 836.08 104.79
  A 54.03 54.03 0.0 0 0 782.05 50.76
  L 107.81 50.76
  A 54.03 54.03 0.0 0 0 53.78 104.79
  L 53.78 283.29
  A 54.03 54.03 0.0 0 0 107.81 337.32
  L 782.05 337.32
  A 54.03 54.03 0.0 0 0 836.08 283.29
  L 836.08 104.79"
/>
<path stroke="#c5c4c6" vector-effect="non-scaling-stroke" d="
  M 674.18 108.53
  L 724.84 253.06
  A 0.51 0.36 -6.3 0 1 724.31 253.53
  L 688.75 253.51
  Q 687.18 253.51 688.42 254.31
  Q 708.84 267.56 729.30 280.70
  C 738.15 286.39 752.15 286.07 762.48 284.72
  C 776.47 282.89 781.27 270.79 776.96 258.55
  Q 764.96 224.44 721.04 101.90
  C 717.32 91.52 714.59 87.47 702.71 87.48
  Q 684.77 87.49 666.79 87.54
  A 0.76 0.71 -79.5 0 0 666.11 88.04
  L 611.93 238.44
  A 0.64 0.56 8.5 0 0 612.57 239.19
  L 662.25 239.04
  A 0.88 0.77 -79.6 0 0 663.01 238.44
  Q 673.27 208.72 683.78 179.06
  Q 684.51 176.99 684.18 174.82
  Q 679.15 141.63 673.83 108.49
  Q 673.79 108.21 674.01 108.25
  A 0.36 0.09 73.3 0 1 674.18 108.53"
/>
<path stroke="#8a8a8a" vector-effect="non-scaling-stroke" d="
  M 596.93 104.60
  C 570.65 79.52 492.56 83.74 487.61 130.24
  Q 484.79 156.77 503.83 170.30
  C 520.43 182.10 542.41 181.26 560.48 189.27
  C 566.51 191.94 567.62 199.84 561.40 203.13
  C 556.43 205.76 548.93 205.95 543.42 205.66
  C 532.67 205.10 525.07 200.69 525.43 188.53
  A 0.52 0.43 -89.4 0 0 525.00 188.00
  L 485.50 188.00
  A 1.46 1.35 0.0 0 0 484.04 189.35
  C 484.06 195.41 484.38 201.86 486.26 207.39
  C 496.69 238.21 536.06 242.14 562.81 239.06
  C 583.88 236.63 604.33 226.88 609.88 204.47
  C 616.43 178.04 605.96 157.25 578.99 149.76
  Q 572.07 147.83 551.51 143.32
  C 545.80 142.07 535.34 139.44 533.07 133.68
  C 530.82 127.97 536.34 123.90 541.19 122.92
  C 552.26 120.67 567.34 121.52 568.10 136.42
  A 0.61 0.39 87.9 0 0 568.50 137.00
  L 608.50 137.00
  A 0.64 0.55 -88.4 0 0 609.05 136.39
  Q 609.97 117.05 596.93 104.60"
/>
<path stroke="#8a8a8a" vector-effect="non-scaling-stroke" d="
  M 141.50 202.50
  L 141.50 179.75
  A 0.50 0.50 0.0 0 1 142.00 179.25
  L 200.25 179.25
  A 0.63 0.50 -0.0 0 0 200.88 178.75
  L 200.87 147.25
  A 0.40 0.37 90.0 0 0 200.50 146.85
  L 142.19 146.53
  A 0.69 0.53 0.0 0 1 141.50 146.00
  L 141.50 126.00
  A 0.75 0.56 0.0 0 1 142.25 125.44
  L 207.06 125.29
  A 0.54 0.54 89.8 0 0 207.60 124.75
  L 207.66 92.06
  A 0.41 0.31 0.0 0 0 207.25 91.75
  L 98.00 91.75
  A 0.50 0.43 89.4 0 0 97.57 92.26
  C 98.00 140.69 97.40 189.14 97.64 237.65
  A 0.61 0.60 -0.0 0 0 98.25 238.25
  L 207.00 238.25
  A 0.57 0.51 0.5 0 0 207.57 237.75
  Q 208.03 220.62 207.39 203.50
  A 0.64 0.52 -0.9 0 0 206.75 203.00
  L 142.00 203.00
  A 0.50 0.50 0.0 0 1 141.50 202.50"
/>
<path stroke="#8a8a8a" vector-effect="non-scaling-stroke" d="
  M 253.75 127.50
  L 253.75 237.75
  A 0.50 0.50 0.0 0 0 254.25 238.25
  L 297.75 238.25
  A 0.50 0.50 0.0 0 0 298.25 237.75
  L 298.25 127.75
  A 0.75 0.75 0.0 0 1 299.00 127.00
  L 335.00 127.00
  A 0.50 0.50 0.0 0 0 335.50 126.50
  L 335.50 92.25
  A 0.50 0.50 0.0 0 0 335.00 91.75
  L 217.25 91.75
  A 0.50 0.50 0.0 0 0 216.75 92.25
  L 216.75 126.50
  A 0.50 0.50 0.0 0 0 217.25 127.00
  L 253.25 127.00
  A 0.50 0.50 0.0 0 1 253.75 127.50"
/>
<path stroke="#8a8a8a" vector-effect="non-scaling-stroke" d="
  M 445.20 161.63
  Q 445.36 161.45 446.21 161.18
  C 455.43 158.25 463.21 152.44 466.87 143.26
  C 475.54 121.47 463.79 98.29 440.85 92.82
  Q 436.43 91.77 427.54 91.76
  Q 389.45 91.71 351.29 91.79
  A 0.54 0.46 0.0 0 0 350.75 92.25
  L 350.75 237.75
  A 0.52 0.45 0.0 0 0 351.27 238.20
  Q 387.10 238.31 422.93 238.22
  Q 437.05 238.19 442.82 236.71
  C 465.13 231.01 477.85 208.71 471.52 186.46
  Q 466.01 167.06 445.62 162.87
  Q 444.32 162.61 445.20 161.63"
/>
<path stroke="#808080" vector-effect="non-scaling-stroke" d="
  M 806.34 224.05
  A 14.29 14.29 0.0 0 0 792.05 209.76
  A 14.29 14.29 0.0 0 0 777.76 224.05
  A 14.29 14.29 0.0 0 0 792.05 238.34
  A 14.29 14.29 0.0 0 0 806.34 224.05"
/>
<path stroke="#8a8a8a" vector-effect="non-scaling-stroke" d="
  M 101.63 290.95
  C 104.68 301.57 116.78 303.33 125.76 299.34
  A 0.81 0.54 -16.6 0 0 126.25 298.75
  L 126.25 293.50
  A 0.40 0.36 -10.2 0 0 125.72 293.17
  C 120.44 295.06 112.63 296.50 109.82 290.95
  C 104.60 280.66 110.10 266.05 124.56 273.09
  A 0.58 0.49 -66.5 0 0 125.26 272.75
  L 127.31 267.81
  A 0.58 0.56 -67.2 0 0 127.02 267.07
  C 108.74 258.68 96.52 273.19 101.63 290.95"
/>
<path stroke="#8a8a8a" vector-effect="non-scaling-stroke" d="
  M 164.6851 280.0291
  A 15.23 15.23 0.0 0 0 149.4817 264.7726
  L 146.5817 264.7675
  A 15.23 15.23 0.0 0 0 131.3252 279.9709
  L 131.3149 285.8909
  A 15.23 15.23 0.0 0 0 146.5183 301.1474
  L 149.4183 301.1525
  A 15.23 15.23 0.0 0 0 164.6748 285.9491
  L 164.6851 280.0291"
/>
<path stroke="#8a8a8a" vector-effect="non-scaling-stroke" d="
  M 268.3250 280.0808
  A 15.32 15.32 0.0 0 0 252.9783 264.7875
  L 250.0983 264.7925
  A 15.32 15.32 0.0 0 0 234.8051 280.1393
  L 234.8150 285.8392
  A 15.32 15.32 0.0 0 0 250.1617 301.1325
  L 253.0417 301.1275
  A 15.32 15.32 0.0 0 0 268.3349 285.7807
  L 268.3250 280.0808"
/>
<path stroke="#8a8a8a" vector-effect="non-scaling-stroke" d="
  M 451.1749 280.0109
  A 15.27 15.27 0.0 0 0 435.8783 264.7676
  L 433.0583 264.7725
  A 15.27 15.27 0.0 0 0 417.8149 280.0691
  L 417.8251 285.9091
  A 15.27 15.27 0.0 0 0 433.1217 301.1524
  L 435.9417 301.1475
  A 15.27 15.27 0.0 0 0 451.1851 285.8509
  L 451.1749 280.0109"
/>
<path stroke="#8a8a8a" vector-effect="non-scaling-stroke" d="
  M 294.17 285.01
  C 304.26 280.18 301.15 265.56 289.97 265.53
  Q 283.27 265.52 276.34 265.45
  A 0.59 0.55 -0.0 0 0 275.75 266.00
  L 275.75 300.00
  A 0.75 0.50 90.0 0 0 276.25 300.75
  L 282.75 300.75
  A 0.50 0.50 0.0 0 0 283.25 300.25
  L 283.25 288.00
  A 0.73 0.48 -89.6 0 1 283.74 287.27
  L 287.32 287.37
  A 0.97 0.10 58.7 0 1 287.87 288.10
  L 295.56 300.44
  A 0.80 0.78 73.3 0 0 296.25 300.82
  L 311.69 300.48
  A 0.78 0.41 2.8 0 0 312.38 300.16
  L 314.59 292.77
  A 0.72 0.68 -81.5 0 1 315.25 292.25
  L 327.00 292.25
  A 0.78 0.73 -8.1 0 1 327.73 292.76
  L 329.90 299.82
  A 0.97 0.86 80.5 0 0 330.75 300.50
  L 338.00 300.50
  A 0.57 0.32 74.9 0 0 338.18 299.78
  L 326.07 265.69
  A 0.83 0.36 73.9 0 0 325.57 265.09
  L 316.93 265.09
  A 1.00 0.48 -74.5 0 0 316.30 265.81
  L 304.23 299.95
  Q 303.99 300.61 303.55 299.95
  L 293.99 285.76
  A 0.52 0.50 59.9 0 1 294.17 285.01"
/>
<path stroke="#8a8a8a" vector-effect="non-scaling-stroke" d="
  M 213.32 288.08
  C 222.53 288.33 230.61 285.24 229.39 274.97
  C 227.91 262.45 213.83 265.67 205.45 265.37
  A 0.74 0.63 0.9 0 0 204.69 266.00
  L 204.87 300.00
  A 0.76 0.64 89.6 0 0 205.51 300.75
  L 212.00 300.75
  A 0.76 0.52 -89.5 0 0 212.52 300.00
  L 212.56 288.43
  A 0.75 0.37 1.5 0 1 213.32 288.08"
/>
<path stroke="#8a8a8a" vector-effect="non-scaling-stroke" d="
  M 345.41 272.00
  L 345.33 300.00
  A 0.75 0.42 90.0 0 0 345.75 300.75
  L 352.50 300.75
  A 0.75 0.35 90.0 0 0 352.85 300.00
  L 352.78 272.25
  A 0.75 0.47 -90.0 0 1 353.25 271.50
  L 362.00 271.50
  A 0.50 0.50 0.0 0 0 362.50 271.00
  L 362.50 266.01
  A 0.75 0.60 0.0 0 0 361.75 265.41
  L 336.25 265.47
  A 0.53 0.51 89.4 0 0 335.75 266.00
  L 335.75 271.00
  A 0.50 0.50 0.0 0 0 336.25 271.50
  L 344.75 271.50
  A 0.66 0.50 0.0 0 1 345.41 272.00"
/>
<path stroke="#8a8a8a" vector-effect="non-scaling-stroke" d="
  M 368.93 294.68
  L 365.82 296.07
  A 1.02 0.96 78.2 0 0 365.25 297.00
  L 365.25 300.25
  A 0.75 0.50 0.0 0 0 366.00 300.75
  L 380.50 300.75
  A 0.77 0.54 -78.5 0 0 381.08 300.20
  Q 382.49 295.67 378.28 295.10
  A 1.63 1.49 -86.4 0 1 377.00 293.50
  L 377.00 272.50
  A 1.17 0.39 87.2 0 1 377.28 271.50
  L 380.59 269.86
  A 0.88 0.35 -22.8 0 0 381.13 269.33
  L 381.23 265.75
  A 0.48 0.42 0.6 0 0 380.75 265.32
  L 365.99 265.38
  A 0.70 0.36 -0.6 0 0 365.28 265.76
  L 365.43 269.51
  A 0.94 0.55 8.6 0 0 366.17 270.11
  Q 368.03 270.53 369.54 271.69
  A 1.07 0.72 -77.9 0 1 369.86 272.50
  L 369.60 294.06
  A 1.01 0.41 -20.5 0 1 368.93 294.68"
/>
<path stroke="#8a8a8a" vector-effect="non-scaling-stroke" d="
  M 398.84 292.97
  Q 395.30 279.34 390.75 266.00
  A 0.99 0.63 76.9 0 0 390.06 265.32
  L 383.74 265.30
  A 0.73 0.59 78.9 0 0 383.24 266.26
  L 394.82 300.23
  A 0.70 0.45 77.3 0 0 395.32 300.72
  L 402.75 300.75
  A 0.94 0.52 -75.4 0 0 403.38 300.09
  L 415.04 266.06
  A 0.46 0.36 -77.8 0 0 414.75 265.47
  L 408.00 265.22
  A 0.83 0.41 -75.7 0 0 407.46 265.86
  L 399.14 292.97
  Q 398.97 293.49 398.84 292.97"
/>
<path stroke="#8a8a8a" vector-effect="non-scaling-stroke" d="
  M 180.25 287.25
  L 183.25 287.24
  A 1.26 0.83 67.9 0 1 184.13 287.85
  L 191.77 299.99
  A 1.08 0.30 60.7 0 0 192.43 300.65
  L 200.07 300.66
  Q 200.63 300.66 200.20 300.02
  L 190.59 285.92
  A 0.64 0.58 -31.8 0 1 190.83 285.06
  C 200.80 279.25 197.73 265.73 185.99 265.56
  Q 179.43 265.46 172.77 265.55
  A 0.53 0.45 -0.6 0 0 172.25 266.00
  L 172.25 300.00
  A 0.75 0.50 90.0 0 0 172.75 300.75
  L 179.25 300.75
  A 0.75 0.50 -90.0 0 0 179.75 300.00
  L 179.75 287.75
  A 0.50 0.50 0.0 0 1 180.25 287.25"
/>
<path stroke="#8a8a8a" vector-effect="non-scaling-stroke" d="
  M 416.20 147.63
  C 431.53 147.20 430.75 123.44 416.99 122.76
  Q 412.65 122.54 392.62 122.85
  A 0.63 0.40 -0.7 0 0 392.00 123.25
  L 392.00 147.00
  A 0.64 0.64 0.9 0 0 392.62 147.64
  Q 404.49 147.95 416.20 147.63"
/>
<path stroke="#8a8a8a" vector-effect="non-scaling-stroke" d="
  M 392.03 179.43
  L 392.01 203.50
  A 0.62 0.40 0.0 0 0 392.63 203.90
  Q 413.46 204.22 419.45 203.96
  C 431.79 203.41 433.57 184.32 423.76 180.01
  Q 421.45 178.99 415.60 179.00
  Q 403.99 179.00 392.58 179.01
  A 0.55 0.43 0.5 0 0 392.03 179.43"
/>
<path stroke="#808080" vector-effect="non-scaling-stroke" d="
  M 804.11 224.04
  A 12.05 12.05 0.0 0 0 792.06 211.99
  A 12.05 12.05 0.0 0 0 780.01 224.04
  A 12.05 12.05 0.0 0 0 792.06 236.09
  A 12.05 12.05 0.0 0 0 804.11 224.04"
/>
<path stroke="#808080" vector-effect="non-scaling-stroke" d="
  M 794.05 224.71
  C 797.53 223.87 799.26 219.94 796.02 217.68
  C 793.50 215.92 789.30 216.42 786.34 216.60
  A 0.65 0.63 88.1 0 0 785.75 217.25
  L 785.75 231.25
  A 0.75 0.49 89.7 0 0 786.25 232.00
  L 787.94 231.95
  A 0.96 0.32 89.8 0 0 788.25 231.00
  L 788.25 225.75
  A 0.54 0.52 -77.5 0 1 789.00 225.26
  Q 789.82 225.66 790.75 225.48
  A 1.01 0.76 -19.4 0 1 791.72 225.79
  L 795.26 231.22
  A 1.31 0.43 60.3 0 0 796.06 231.94
  L 798.00 232.01
  Q 798.94 232.04 798.30 231.20
  L 793.73 225.27
  A 0.43 0.34 -22.4 0 1 794.05 224.71"
/>
<path stroke="#808080" vector-effect="non-scaling-stroke" d="
  M 788.78 223.37
  C 796.65 225.03 797.78 217.24 788.79 218.52
  A 0.63 0.46 -5.5 0 0 788.25 219.00
  L 788.25 222.74
  A 0.68 0.64 6.8 0 0 788.78 223.37"
/>
<path stroke="#8a8a8a" vector-effect="non-scaling-stroke" d="
  M 156.5671 279.1699
  A 7.99 7.99 0.0 0 0 148.5492 271.2078
  L 147.2492 271.2123
  A 7.99 7.99 0.0 0 0 139.2872 279.2302
  L 139.3129 286.6101
  A 7.99 7.99 0.0 0 0 147.3308 294.5722
  L 148.6308 294.5677
  A 7.99 7.99 0.0 0 0 156.5928 286.5498
  L 156.5671 279.1699"
/>
<path stroke="#8a8a8a" vector-effect="non-scaling-stroke" d="
  M 260.0834 279.1250
  A 7.96 7.96 0.0 0 0 252.1095 271.1789
  L 250.8695 271.1811
  A 7.96 7.96 0.0 0 0 242.9235 279.1550
  L 242.9366 286.6750
  A 7.96 7.96 0.0 0 0 250.9105 294.6211
  L 252.1505 294.6189
  A 7.96 7.96 0.0 0 0 260.0965 286.6450
  L 260.0834 279.1250"
/>
<path stroke="#8a8a8a" vector-effect="non-scaling-stroke" d="
  M 443.0935 279.1949
  A 8.00 8.00 0.0 0 0 435.0796 271.2089
  L 433.7796 271.2112
  A 8.00 8.00 0.0 0 0 425.7936 279.2251
  L 425.8065 286.6051
  A 8.00 8.00 0.0 0 0 433.8204 294.5911
  L 435.1204 294.5888
  A 8.00 8.00 0.0 0 0 443.1064 286.5749
  L 443.0935 279.1949"
/>
<path stroke="#8a8a8a" vector-effect="non-scaling-stroke" d="
  M 317.19 285.83
  L 325.01 285.77
  A 0.61 0.57 80.5 0 0 325.53 284.98
  L 321.53 271.74
  Q 321.17 270.55 320.80 271.77
  L 316.77 285.26
  A 0.44 0.44 -81.6 0 0 317.19 285.83"
/>
<path stroke="#8a8a8a" vector-effect="non-scaling-stroke" d="
  M 283.75 280.85
  C 295.98 282.44 294.80 269.29 283.92 271.63
  A 0.76 0.63 85.8 0 0 283.43 272.32
  L 283.25 280.25
  A 0.58 0.58 -85.1 0 0 283.75 280.85"
/>
<path stroke="#8a8a8a" vector-effect="non-scaling-stroke" d="
  M 213.11 281.53
  C 224.97 284.08 224.49 268.74 213.05 271.68
  A 0.70 0.45 85.7 0 0 212.70 272.32
  L 212.66 280.81
  A 0.76 0.55 -86.1 0 0 213.11 281.53"
/>
<path stroke="#8a8a8a" vector-effect="non-scaling-stroke" d="
  M 180.27 280.98
  C 192.72 281.94 191.09 269.29 180.22 271.62
  A 0.67 0.58 84.7 0 0 179.76 272.26
  L 179.75 280.50
  A 0.56 0.47 2.6 0 0 180.27 280.98"
/>
</g>
<path fill="#000000" fill-opacity="0.004" d="
  M 0.00 0.00
  L 889.00 0.00
  L 889.00 388.00
  L 0.00 388.00
  L 0.00 0.00
  Z
  M 100.50 41.29
  Q 63.72 47.15 49.11 79.78
  C 46.35 85.96 44.00 94.45 44.00 100.81
  Q 44.02 180.94 43.82 261.06
  Q 43.77 281.33 44.31 287.75
  Q 46.99 319.90 73.57 336.96
  Q 87.03 345.59 103.75 346.93
  Q 105.85 348.00 108.06 348.00
  Q 237.91 348.08 367.75 347.96
  L 721.50 347.96
  L 784.26 347.74
  C 811.47 343.35 833.04 331.33 842.36 303.90
  Q 844.94 296.29 846.79 288.26
  Q 847.47 193.49 846.57 98.70
  Q 842.69 81.36 835.71 70.03
  C 825.70 53.80 806.29 43.19 787.02 41.18
  Q 781.73 40.12 776.44 40.13
  Q 532.25 40.39 288.06 40.18
  Q 147.18 40.05 111.53 40.23
  C 107.87 40.25 104.14 40.84 100.50 41.29
  Z"
/>
<path fill="#adafab" d="
  M 787.02 41.18
  Q 783.25 42.20 779.37 42.00
  Q 774.19 41.73 774.11 41.73
  C 549.68 42.17 325.24 41.37 100.81 41.86
  Q 100.45 41.86 100.50 41.29
  C 104.14 40.84 107.87 40.25 111.53 40.23
  Q 147.18 40.05 288.06 40.18
  Q 532.25 40.39 776.44 40.13
  Q 781.73 40.12 787.02 41.18
  Z"
/>
<path fill="#8a888c" d="
  M 787.02 41.18
  C 806.29 43.19 825.70 53.80 835.71 70.03
  Q 842.69 81.36 846.57 98.70
  Q 844.41 100.08 844.72 102.12
  Q 845.06 104.34 845.06 104.44
  Q 844.88 195.85 845.13 287.25
  Q 845.13 288.29 846.79 288.26
  Q 844.94 296.29 842.36 303.90
  C 833.04 331.33 811.47 343.35 784.26 347.74
  Q 784.02 345.99 780.98 346.36
  Q 779.73 346.51 778.48 346.51
  Q 751.53 346.48 723.57 346.52
  Q 722.02 346.52 721.50 347.96
  L 367.75 347.96
  Q 367.57 346.52 365.75 346.52
  C 302.47 346.46 239.17 346.73 175.89 346.54
  C 169.24 346.52 156.97 346.88 146.93 346.56
  Q 130.00 346.03 103.75 346.93
  Q 87.03 345.59 73.57 336.96
  Q 46.99 319.90 44.31 287.75
  Q 43.77 281.33 43.82 261.06
  Q 44.02 180.94 44.00 100.81
  C 44.00 94.45 46.35 85.96 49.11 79.78
  Q 63.72 47.15 100.50 41.29
  Q 100.45 41.86 100.81 41.86
  C 325.24 41.37 549.68 42.17 774.11 41.73
  Q 774.19 41.73 779.37 42.00
  Q 783.25 42.20 787.02 41.18
  Z
  M 836.08 104.79
  A 54.03 54.03 0.0 0 0 782.05 50.76
  L 107.81 50.76
  A 54.03 54.03 0.0 0 0 53.78 104.79
  L 53.78 283.29
  A 54.03 54.03 0.0 0 0 107.81 337.32
  L 782.05 337.32
  A 54.03 54.03 0.0 0 0 836.08 283.29
  L 836.08 104.79
  Z"
/>
<path fill="#ffffff" d="
  M 836.08 283.29
  A 54.03 54.03 0.0 0 1 782.05 337.32
  L 107.81 337.32
  A 54.03 54.03 0.0 0 1 53.78 283.29
  L 53.78 104.79
  A 54.03 54.03 0.0 0 1 107.81 50.76
  L 782.05 50.76
  A 54.03 54.03 0.0 0 1 836.08 104.79
  L 836.08 283.29
  Z
  M 674.18 108.53
  L 724.84 253.06
  A 0.51 0.36 -6.3 0 1 724.31 253.53
  L 688.75 253.51
  Q 687.18 253.51 688.42 254.31
  Q 708.84 267.56 729.30 280.70
  C 738.15 286.39 752.15 286.07 762.48 284.72
  C 776.47 282.89 781.27 270.79 776.96 258.55
  Q 764.96 224.44 721.04 101.90
  C 717.32 91.52 714.59 87.47 702.71 87.48
  Q 684.77 87.49 666.79 87.54
  A 0.76 0.71 -79.5 0 0 666.11 88.04
  L 611.93 238.44
  A 0.64 0.56 8.5 0 0 612.57 239.19
  L 662.25 239.04
  A 0.88 0.77 -79.6 0 0 663.01 238.44
  Q 673.27 208.72 683.78 179.06
  Q 684.51 176.99 684.18 174.82
  Q 679.15 141.63 673.83 108.49
  Q 673.79 108.21 674.01 108.25
  A 0.36 0.09 73.3 0 1 674.18 108.53
  Z
  M 596.93 104.60
  C 570.65 79.52 492.56 83.74 487.61 130.24
  Q 484.79 156.77 503.83 170.30
  C 520.43 182.10 542.41 181.26 560.48 189.27
  C 566.51 191.94 567.62 199.84 561.40 203.13
  C 556.43 205.76 548.93 205.95 543.42 205.66
  C 532.67 205.10 525.07 200.69 525.43 188.53
  A 0.52 0.43 -89.4 0 0 525.00 188.00
  L 485.50 188.00
  A 1.46 1.35 0.0 0 0 484.04 189.35
  C 484.06 195.41 484.38 201.86 486.26 207.39
  C 496.69 238.21 536.06 242.14 562.81 239.06
  C 583.88 236.63 604.33 226.88 609.88 204.47
  C 616.43 178.04 605.96 157.25 578.99 149.76
  Q 572.07 147.83 551.51 143.32
  C 545.80 142.07 535.34 139.44 533.07 133.68
  C 530.82 127.97 536.34 123.90 541.19 122.92
  C 552.26 120.67 567.34 121.52 568.10 136.42
  A 0.61 0.39 87.9 0 0 568.50 137.00
  L 608.50 137.00
  A 0.64 0.55 -88.4 0 0 609.05 136.39
  Q 609.97 117.05 596.93 104.60
  Z
  M 141.50 202.50
  L 141.50 179.75
  A 0.50 0.50 0.0 0 1 142.00 179.25
  L 200.25 179.25
  A 0.63 0.50 -0.0 0 0 200.88 178.75
  L 200.87 147.25
  A 0.40 0.37 90.0 0 0 200.50 146.85
  L 142.19 146.53
  A 0.69 0.53 0.0 0 1 141.50 146.00
  L 141.50 126.00
  A 0.75 0.56 0.0 0 1 142.25 125.44
  L 207.06 125.29
  A 0.54 0.54 89.8 0 0 207.60 124.75
  L 207.66 92.06
  A 0.41 0.31 0.0 0 0 207.25 91.75
  L 98.00 91.75
  A 0.50 0.43 89.4 0 0 97.57 92.26
  C 98.00 140.69 97.40 189.14 97.64 237.65
  A 0.61 0.60 -0.0 0 0 98.25 238.25
  L 207.00 238.25
  A 0.57 0.51 0.5 0 0 207.57 237.75
  Q 208.03 220.62 207.39 203.50
  A 0.64 0.52 -0.9 0 0 206.75 203.00
  L 142.00 203.00
  A 0.50 0.50 0.0 0 1 141.50 202.50
  Z
  M 253.75 127.50
  L 253.75 237.75
  A 0.50 0.50 0.0 0 0 254.25 238.25
  L 297.75 238.25
  A 0.50 0.50 0.0 0 0 298.25 237.75
  L 298.25 127.75
  A 0.75 0.75 0.0 0 1 299.00 127.00
  L 335.00 127.00
  A 0.50 0.50 0.0 0 0 335.50 126.50
  L 335.50 92.25
  A 0.50 0.50 0.0 0 0 335.00 91.75
  L 217.25 91.75
  A 0.50 0.50 0.0 0 0 216.75 92.25
  L 216.75 126.50
  A 0.50 0.50 0.0 0 0 217.25 127.00
  L 253.25 127.00
  A 0.50 0.50 0.0 0 1 253.75 127.50
  Z
  M 445.20 161.63
  Q 445.36 161.45 446.21 161.18
  C 455.43 158.25 463.21 152.44 466.87 143.26
  C 475.54 121.47 463.79 98.29 440.85 92.82
  Q 436.43 91.77 427.54 91.76
  Q 389.45 91.71 351.29 91.79
  A 0.54 0.46 0.0 0 0 350.75 92.25
  L 350.75 237.75
  A 0.52 0.45 0.0 0 0 351.27 238.20
  Q 387.10 238.31 422.93 238.22
  Q 437.05 238.19 442.82 236.71
  C 465.13 231.01 477.85 208.71 471.52 186.46
  Q 466.01 167.06 445.62 162.87
  Q 444.32 162.61 445.20 161.63
  Z
  M 806.34 224.05
  A 14.29 14.29 0.0 0 0 792.05 209.76
  A 14.29 14.29 0.0 0 0 777.76 224.05
  A 14.29 14.29 0.0 0 0 792.05 238.34
  A 14.29 14.29 0.0 0 0 806.34 224.05
  Z
  M 101.63 290.95
  C 104.68 301.57 116.78 303.33 125.76 299.34
  A 0.81 0.54 -16.6 0 0 126.25 298.75
  L 126.25 293.50
  A 0.40 0.36 -10.2 0 0 125.72 293.17
  C 120.44 295.06 112.63 296.50 109.82 290.95
  C 104.60 280.66 110.10 266.05 124.56 273.09
  A 0.58 0.49 -66.5 0 0 125.26 272.75
  L 127.31 267.81
  A 0.58 0.56 -67.2 0 0 127.02 267.07
  C 108.74 258.68 96.52 273.19 101.63 290.95
  Z
  M 164.6851 280.0291
  A 15.23 15.23 0.0 0 0 149.4817 264.7726
  L 146.5817 264.7675
  A 15.23 15.23 0.0 0 0 131.3252 279.9709
  L 131.3149 285.8909
  A 15.23 15.23 0.0 0 0 146.5183 301.1474
  L 149.4183 301.1525
  A 15.23 15.23 0.0 0 0 164.6748 285.9491
  L 164.6851 280.0291
  Z
  M 268.3250 280.0808
  A 15.32 15.32 0.0 0 0 252.9783 264.7875
  L 250.0983 264.7925
  A 15.32 15.32 0.0 0 0 234.8051 280.1393
  L 234.8150 285.8392
  A 15.32 15.32 0.0 0 0 250.1617 301.1325
  L 253.0417 301.1275
  A 15.32 15.32 0.0 0 0 268.3349 285.7807
  L 268.3250 280.0808
  Z
  M 451.1749 280.0109
  A 15.27 15.27 0.0 0 0 435.8783 264.7676
  L 433.0583 264.7725
  A 15.27 15.27 0.0 0 0 417.8149 280.0691
  L 417.8251 285.9091
  A 15.27 15.27 0.0 0 0 433.1217 301.1524
  L 435.9417 301.1475
  A 15.27 15.27 0.0 0 0 451.1851 285.8509
  L 451.1749 280.0109
  Z
  M 294.17 285.01
  C 304.26 280.18 301.15 265.56 289.97 265.53
  Q 283.27 265.52 276.34 265.45
  A 0.59 0.55 -0.0 0 0 275.75 266.00
  L 275.75 300.00
  A 0.75 0.50 90.0 0 0 276.25 300.75
  L 282.75 300.75
  A 0.50 0.50 0.0 0 0 283.25 300.25
  L 283.25 288.00
  A 0.73 0.48 -89.6 0 1 283.74 287.27
  L 287.32 287.37
  A 0.97 0.10 58.7 0 1 287.87 288.10
  L 295.56 300.44
  A 0.80 0.78 73.3 0 0 296.25 300.82
  L 311.69 300.48
  A 0.78 0.41 2.8 0 0 312.38 300.16
  L 314.59 292.77
  A 0.72 0.68 -81.5 0 1 315.25 292.25
  L 327.00 292.25
  A 0.78 0.73 -8.1 0 1 327.73 292.76
  L 329.90 299.82
  A 0.97 0.86 80.5 0 0 330.75 300.50
  L 338.00 300.50
  A 0.57 0.32 74.9 0 0 338.18 299.78
  L 326.07 265.69
  A 0.83 0.36 73.9 0 0 325.57 265.09
  L 316.93 265.09
  A 1.00 0.48 -74.5 0 0 316.30 265.81
  L 304.23 299.95
  Q 303.99 300.61 303.55 299.95
  L 293.99 285.76
  A 0.52 0.50 59.9 0 1 294.17 285.01
  Z
  M 213.32 288.08
  C 222.53 288.33 230.61 285.24 229.39 274.97
  C 227.91 262.45 213.83 265.67 205.45 265.37
  A 0.74 0.63 0.9 0 0 204.69 266.00
  L 204.87 300.00
  A 0.76 0.64 89.6 0 0 205.51 300.75
  L 212.00 300.75
  A 0.76 0.52 -89.5 0 0 212.52 300.00
  L 212.56 288.43
  A 0.75 0.37 1.5 0 1 213.32 288.08
  Z
  M 345.41 272.00
  L 345.33 300.00
  A 0.75 0.42 90.0 0 0 345.75 300.75
  L 352.50 300.75
  A 0.75 0.35 90.0 0 0 352.85 300.00
  L 352.78 272.25
  A 0.75 0.47 -90.0 0 1 353.25 271.50
  L 362.00 271.50
  A 0.50 0.50 0.0 0 0 362.50 271.00
  L 362.50 266.01
  A 0.75 0.60 0.0 0 0 361.75 265.41
  L 336.25 265.47
  A 0.53 0.51 89.4 0 0 335.75 266.00
  L 335.75 271.00
  A 0.50 0.50 0.0 0 0 336.25 271.50
  L 344.75 271.50
  A 0.66 0.50 0.0 0 1 345.41 272.00
  Z
  M 368.93 294.68
  L 365.82 296.07
  A 1.02 0.96 78.2 0 0 365.25 297.00
  L 365.25 300.25
  A 0.75 0.50 0.0 0 0 366.00 300.75
  L 380.50 300.75
  A 0.77 0.54 -78.5 0 0 381.08 300.20
  Q 382.49 295.67 378.28 295.10
  A 1.63 1.49 -86.4 0 1 377.00 293.50
  L 377.00 272.50
  A 1.17 0.39 87.2 0 1 377.28 271.50
  L 380.59 269.86
  A 0.88 0.35 -22.8 0 0 381.13 269.33
  L 381.23 265.75
  A 0.48 0.42 0.6 0 0 380.75 265.32
  L 365.99 265.38
  A 0.70 0.36 -0.6 0 0 365.28 265.76
  L 365.43 269.51
  A 0.94 0.55 8.6 0 0 366.17 270.11
  Q 368.03 270.53 369.54 271.69
  A 1.07 0.72 -77.9 0 1 369.86 272.50
  L 369.60 294.06
  A 1.01 0.41 -20.5 0 1 368.93 294.68
  Z
  M 398.84 292.97
  Q 395.30 279.34 390.75 266.00
  A 0.99 0.63 76.9 0 0 390.06 265.32
  L 383.74 265.30
  A 0.73 0.59 78.9 0 0 383.24 266.26
  L 394.82 300.23
  A 0.70 0.45 77.3 0 0 395.32 300.72
  L 402.75 300.75
  A 0.94 0.52 -75.4 0 0 403.38 300.09
  L 415.04 266.06
  A 0.46 0.36 -77.8 0 0 414.75 265.47
  L 408.00 265.22
  A 0.83 0.41 -75.7 0 0 407.46 265.86
  L 399.14 292.97
  Q 398.97 293.49 398.84 292.97
  Z
  M 180.25 287.25
  L 183.25 287.24
  A 1.26 0.83 67.9 0 1 184.13 287.85
  L 191.77 299.99
  A 1.08 0.30 60.7 0 0 192.43 300.65
  L 200.07 300.66
  Q 200.63 300.66 200.20 300.02
  L 190.59 285.92
  A 0.64 0.58 -31.8 0 1 190.83 285.06
  C 200.80 279.25 197.73 265.73 185.99 265.56
  Q 179.43 265.46 172.77 265.55
  A 0.53 0.45 -0.6 0 0 172.25 266.00
  L 172.25 300.00
  A 0.75 0.50 90.0 0 0 172.75 300.75
  L 179.25 300.75
  A 0.75 0.50 -90.0 0 0 179.75 300.00
  L 179.75 287.75
  A 0.50 0.50 0.0 0 1 180.25 287.25
  Z"
/>
<path fill="#8a888c" d="
  M 674.01 108.25
  Q 673.79 108.21 673.83 108.49
  Q 679.15 141.63 684.18 174.82
  Q 684.51 176.99 683.78 179.06
  Q 673.27 208.72 663.01 238.44
  A 0.88 0.77 -79.6 0 1 662.25 239.04
  L 612.57 239.19
  A 0.64 0.56 8.5 0 1 611.93 238.44
  L 666.11 88.04
  A 0.76 0.71 -79.5 0 1 666.79 87.54
  Q 684.77 87.49 702.71 87.48
  C 714.59 87.47 717.32 91.52 721.04 101.90
  Q 764.96 224.44 776.96 258.55
  C 781.27 270.79 776.47 282.89 762.48 284.72
  C 752.15 286.07 738.15 286.39 729.30 280.70
  Q 708.84 267.56 688.42 254.31
  Q 687.18 253.51 688.75 253.51
  L 724.31 253.53
  A 0.51 0.36 -6.3 0 0 724.84 253.06
  L 674.18 108.53
  A 0.36 0.09 73.3 0 0 674.01 108.25
  Z"
/>
<path fill="#151515" d="
  M 487.61 130.24
  C 492.56 83.74 570.65 79.52 596.93 104.60
  Q 609.97 117.05 609.05 136.39
  A 0.64 0.55 -88.4 0 1 608.50 137.00
  L 568.50 137.00
  A 0.61 0.39 87.9 0 1 568.10 136.42
  C 567.34 121.52 552.26 120.67 541.19 122.92
  C 536.34 123.90 530.82 127.97 533.07 133.68
  C 535.34 139.44 545.80 142.07 551.51 143.32
  Q 572.07 147.83 578.99 149.76
  C 605.96 157.25 616.43 178.04 609.88 204.47
  C 604.33 226.88 583.88 236.63 562.81 239.06
  C 536.06 242.14 496.69 238.21 486.26 207.39
  C 484.38 201.86 484.06 195.41 484.04 189.35
  A 1.46 1.35 -0.0 0 1 485.50 188.00
  L 525.00 188.00
  A 0.52 0.43 -89.4 0 1 525.43 188.53
  C 525.07 200.69 532.67 205.10 543.42 205.66
  C 548.93 205.95 556.43 205.76 561.40 203.13
  C 567.62 199.84 566.51 191.94 560.48 189.27
  C 542.41 181.26 520.43 182.10 503.83 170.30
  Q 484.79 156.77 487.61 130.24
  Z"
/>
<path fill="#151515" d="
  M 142.00 203.00
  L 206.75 203.00
  A 0.64 0.52 -0.9 0 1 207.39 203.50
  Q 208.03 220.62 207.57 237.75
  A 0.57 0.51 0.5 0 1 207.00 238.25
  L 98.25 238.25
  A 0.61 0.60 -0.0 0 1 97.64 237.65
  C 97.40 189.14 98.00 140.69 97.57 92.26
  A 0.50 0.43 89.4 0 1 98.00 91.75
  L 207.25 91.75
  A 0.41 0.31 -0.0 0 1 207.66 92.06
  L 207.60 124.75
  A 0.54 0.54 -89.8 0 1 207.06 125.29
  L 142.25 125.44
  A 0.75 0.56 0.0 0 0 141.50 126.00
  L 141.50 146.00
  A 0.69 0.53 0.0 0 0 142.19 146.53
  L 200.50 146.85
  A 0.40 0.37 -90.0 0 1 200.87 147.25
  L 200.88 178.75
  A 0.63 0.50 -0.0 0 1 200.25 179.25
  L 142.00 179.25
  A 0.50 0.50 0.0 0 0 141.50 179.75
  L 141.50 202.50
  A 0.50 0.50 0.0 0 0 142.00 203.00
  Z"
/>
<path fill="#151515" d="
  M 253.25 127.00
  L 217.25 127.00
  A 0.50 0.50 0.0 0 1 216.75 126.50
  L 216.75 92.25
  A 0.50 0.50 0.0 0 1 217.25 91.75
  L 335.00 91.75
  A 0.50 0.50 0.0 0 1 335.50 92.25
  L 335.50 126.50
  A 0.50 0.50 0.0 0 1 335.00 127.00
  L 299.00 127.00
  A 0.75 0.75 0.0 0 0 298.25 127.75
  L 298.25 237.75
  A 0.50 0.50 0.0 0 1 297.75 238.25
  L 254.25 238.25
  A 0.50 0.50 0.0 0 1 253.75 237.75
  L 253.75 127.50
  A 0.50 0.50 0.0 0 0 253.25 127.00
  Z"
/>
<path fill="#151515" d="
  M 445.20 161.63
  Q 444.32 162.61 445.62 162.87
  Q 466.01 167.06 471.52 186.46
  C 477.85 208.71 465.13 231.01 442.82 236.71
  Q 437.05 238.19 422.93 238.22
  Q 387.10 238.31 351.27 238.20
  A 0.52 0.45 -0.0 0 1 350.75 237.75
  L 350.75 92.25
  A 0.54 0.46 -0.0 0 1 351.29 91.79
  Q 389.45 91.71 427.54 91.76
  Q 436.43 91.77 440.85 92.82
  C 463.79 98.29 475.54 121.47 466.87 143.26
  C 463.21 152.44 455.43 158.25 446.21 161.18
  Q 445.36 161.45 445.20 161.63
  Z
  M 416.20 147.63
  C 431.53 147.20 430.75 123.44 416.99 122.76
  Q 412.65 122.54 392.62 122.85
  A 0.63 0.40 -0.7 0 0 392.00 123.25
  L 392.00 147.00
  A 0.64 0.64 0.9 0 0 392.62 147.64
  Q 404.49 147.95 416.20 147.63
  Z
  M 392.03 179.43
  L 392.01 203.50
  A 0.62 0.40 0.0 0 0 392.63 203.90
  Q 413.46 204.22 419.45 203.96
  C 431.79 203.41 433.57 184.32 423.76 180.01
  Q 421.45 178.99 415.60 179.00
  Q 403.99 179.00 392.58 179.01
  A 0.55 0.43 0.5 0 0 392.03 179.43
  Z"
/>
<path fill="#adafab" d="
  M 846.57 98.70
  Q 847.47 193.49 846.79 288.26
  Q 845.13 288.29 845.13 287.25
  Q 844.88 195.85 845.06 104.44
  Q 845.06 104.34 844.72 102.12
  Q 844.41 100.08 846.57 98.70
  Z"
/>
<path fill="#ffffff" d="
  M 416.99 122.76
  C 430.75 123.44 431.53 147.20 416.20 147.63
  Q 404.49 147.95 392.62 147.64
  A 0.64 0.64 0.9 0 1 392.00 147.00
  L 392.00 123.25
  A 0.63 0.40 -0.7 0 1 392.62 122.85
  Q 412.65 122.54 416.99 122.76
  Z"
/>
<path fill="#ffffff" d="
  M 392.03 179.43
  A 0.55 0.43 0.5 0 1 392.58 179.01
  Q 403.99 179.00 415.60 179.00
  Q 421.45 178.99 423.76 180.01
  C 433.57 184.32 431.79 203.41 419.45 203.96
  Q 413.46 204.22 392.63 203.90
  A 0.62 0.40 0.0 0 1 392.01 203.50
  L 392.03 179.43
  Z"
/>
<path fill="#010101" d="
  M 806.34 224.05
  A 14.29 14.29 0.0 0 1 792.05 238.34
  A 14.29 14.29 0.0 0 1 777.76 224.05
  A 14.29 14.29 0.0 0 1 792.05 209.76
  A 14.29 14.29 0.0 0 1 806.34 224.05
  Z
  M 804.11 224.04
  A 12.05 12.05 0.0 0 0 792.06 211.99
  A 12.05 12.05 0.0 0 0 780.01 224.04
  A 12.05 12.05 0.0 0 0 792.06 236.09
  A 12.05 12.05 0.0 0 0 804.11 224.04
  Z"
/>
<path fill="#ffffff" d="
  M 804.11 224.04
  A 12.05 12.05 0.0 0 1 792.06 236.09
  A 12.05 12.05 0.0 0 1 780.01 224.04
  A 12.05 12.05 0.0 0 1 792.06 211.99
  A 12.05 12.05 0.0 0 1 804.11 224.04
  Z
  M 794.05 224.71
  C 797.53 223.87 799.26 219.94 796.02 217.68
  C 793.50 215.92 789.30 216.42 786.34 216.60
  A 0.65 0.63 88.1 0 0 785.75 217.25
  L 785.75 231.25
  A 0.75 0.49 89.7 0 0 786.25 232.00
  L 787.94 231.95
  A 0.96 0.32 89.8 0 0 788.25 231.00
  L 788.25 225.75
  A 0.54 0.52 -77.5 0 1 789.00 225.26
  Q 789.82 225.66 790.75 225.48
  A 1.01 0.76 -19.4 0 1 791.72 225.79
  L 795.26 231.22
  A 1.31 0.43 60.3 0 0 796.06 231.94
  L 798.00 232.01
  Q 798.94 232.04 798.30 231.20
  L 793.73 225.27
  A 0.43 0.34 -22.4 0 1 794.05 224.71
  Z"
/>
<path fill="#010101" d="
  M 793.73 225.27
  L 798.30 231.20
  Q 798.94 232.04 798.00 232.01
  L 796.06 231.94
  A 1.31 0.43 60.3 0 1 795.26 231.22
  L 791.72 225.79
  A 1.01 0.76 -19.4 0 0 790.75 225.48
  Q 789.82 225.66 789.00 225.26
  A 0.54 0.52 -77.5 0 0 788.25 225.75
  L 788.25 231.00
  A 0.96 0.32 89.8 0 1 787.94 231.95
  L 786.25 232.00
  A 0.75 0.49 89.7 0 1 785.75 231.25
  L 785.75 217.25
  A 0.65 0.63 88.1 0 1 786.34 216.60
  C 789.30 216.42 793.50 215.92 796.02 217.68
  C 799.26 219.94 797.53 223.87 794.05 224.71
  A 0.43 0.34 -22.4 0 0 793.73 225.27
  Z
  M 788.78 223.37
  C 796.65 225.03 797.78 217.24 788.79 218.52
  A 0.63 0.46 -5.5 0 0 788.25 219.00
  L 788.25 222.74
  A 0.68 0.64 6.8 0 0 788.78 223.37
  Z"
/>
<path fill="#ffffff" d="
  M 788.79 218.52
  C 797.78 217.24 796.65 225.03 788.78 223.37
  A 0.68 0.64 6.8 0 1 788.25 222.74
  L 788.25 219.00
  A 0.63 0.46 -5.5 0 1 788.79 218.52
  Z"
/>
<path fill="#151515" d="
  M 125.76 299.34
  C 116.78 303.33 104.68 301.57 101.63 290.95
  C 96.52 273.19 108.74 258.68 127.02 267.07
  A 0.58 0.56 -67.2 0 1 127.31 267.81
  L 125.26 272.75
  A 0.58 0.49 -66.5 0 1 124.56 273.09
  C 110.10 266.05 104.60 280.66 109.82 290.95
  C 112.63 296.50 120.44 295.06 125.72 293.17
  A 0.40 0.36 -10.2 0 1 126.25 293.50
  L 126.25 298.75
  A 0.81 0.54 -16.6 0 1 125.76 299.34
  Z"
/>
<path fill="#151515" d="
  M 164.6748 285.9491
  A 15.23 15.23 0.0 0 1 149.4183 301.1525
  L 146.5183 301.1474
  A 15.23 15.23 0.0 0 1 131.3149 285.8909
  L 131.3252 279.9709
  A 15.23 15.23 0.0 0 1 146.5817 264.7675
  L 149.4817 264.7726
  A 15.23 15.23 0.0 0 1 164.6851 280.0291
  L 164.6748 285.9491
  Z
  M 156.5671 279.1699
  A 7.99 7.99 0.0 0 0 148.5492 271.2078
  L 147.2492 271.2123
  A 7.99 7.99 0.0 0 0 139.2872 279.2302
  L 139.3129 286.6101
  A 7.99 7.99 0.0 0 0 147.3308 294.5722
  L 148.6308 294.5677
  A 7.99 7.99 0.0 0 0 156.5928 286.5498
  L 156.5671 279.1699
  Z"
/>
<path fill="#151515" d="
  M 268.3349 285.7807
  A 15.32 15.32 0.0 0 1 253.0417 301.1275
  L 250.1617 301.1325
  A 15.32 15.32 0.0 0 1 234.8150 285.8392
  L 234.8051 280.1393
  A 15.32 15.32 0.0 0 1 250.0983 264.7925
  L 252.9783 264.7875
  A 15.32 15.32 0.0 0 1 268.3250 280.0808
  L 268.3349 285.7807
  Z
  M 260.0834 279.1250
  A 7.96 7.96 0.0 0 0 252.1095 271.1789
  L 250.8695 271.1811
  A 7.96 7.96 0.0 0 0 242.9235 279.1550
  L 242.9366 286.6750
  A 7.96 7.96 0.0 0 0 250.9105 294.6211
  L 252.1505 294.6189
  A 7.96 7.96 0.0 0 0 260.0965 286.6450
  L 260.0834 279.1250
  Z"
/>
<path fill="#151515" d="
  M 451.1851 285.8509
  A 15.27 15.27 0.0 0 1 435.9417 301.1475
  L 433.1217 301.1524
  A 15.27 15.27 0.0 0 1 417.8251 285.9091
  L 417.8149 280.0691
  A 15.27 15.27 0.0 0 1 433.0583 264.7725
  L 435.8783 264.7676
  A 15.27 15.27 0.0 0 1 451.1749 280.0109
  L 451.1851 285.8509
  Z
  M 443.0935 279.1949
  A 8.00 8.00 0.0 0 0 435.0796 271.2089
  L 433.7796 271.2112
  A 8.00 8.00 0.0 0 0 425.7936 279.2251
  L 425.8065 286.6051
  A 8.00 8.00 0.0 0 0 433.8204 294.5911
  L 435.1204 294.5888
  A 8.00 8.00 0.0 0 0 443.1064 286.5749
  L 443.0935 279.1949
  Z"
/>
<path fill="#151515" d="
  M 294.17 285.01
  A 0.52 0.50 59.9 0 0 293.99 285.76
  L 303.55 299.95
  Q 303.99 300.61 304.23 299.95
  L 316.30 265.81
  A 1.00 0.48 -74.5 0 1 316.93 265.09
  L 325.57 265.09
  A 0.83 0.36 73.9 0 1 326.07 265.69
  L 338.18 299.78
  A 0.57 0.32 74.9 0 1 338.00 300.50
  L 330.75 300.50
  A 0.97 0.86 80.5 0 1 329.90 299.82
  L 327.73 292.76
  A 0.78 0.73 -8.1 0 0 327.00 292.25
  L 315.25 292.25
  A 0.72 0.68 -81.5 0 0 314.59 292.77
  L 312.38 300.16
  A 0.78 0.41 2.8 0 1 311.69 300.48
  L 296.25 300.82
  A 0.80 0.78 73.3 0 1 295.56 300.44
  L 287.87 288.10
  A 0.97 0.10 58.7 0 0 287.32 287.37
  L 283.74 287.27
  A 0.73 0.48 -89.6 0 0 283.25 288.00
  L 283.25 300.25
  A 0.50 0.50 0.0 0 1 282.75 300.75
  L 276.25 300.75
  A 0.75 0.50 90.0 0 1 275.75 300.00
  L 275.75 266.00
  A 0.59 0.55 -0.0 0 1 276.34 265.45
  Q 283.27 265.52 289.97 265.53
  C 301.15 265.56 304.26 280.18 294.17 285.01
  Z
  M 317.19 285.83
  L 325.01 285.77
  A 0.61 0.57 80.5 0 0 325.53 284.98
  L 321.53 271.74
  Q 321.17 270.55 320.80 271.77
  L 316.77 285.26
  A 0.44 0.44 -81.6 0 0 317.19 285.83
  Z
  M 283.75 280.85
  C 295.98 282.44 294.80 269.29 283.92 271.63
  A 0.76 0.63 85.8 0 0 283.43 272.32
  L 283.25 280.25
  A 0.58 0.58 -85.1 0 0 283.75 280.85
  Z"
/>
<path fill="#151515" d="
  M 212.56 288.43
  L 212.52 300.00
  A 0.76 0.52 -89.5 0 1 212.00 300.75
  L 205.51 300.75
  A 0.76 0.64 89.6 0 1 204.87 300.00
  L 204.69 266.00
  A 0.74 0.63 0.9 0 1 205.45 265.37
  C 213.83 265.67 227.91 262.45 229.39 274.97
  C 230.61 285.24 222.53 288.33 213.32 288.08
  A 0.75 0.37 1.5 0 0 212.56 288.43
  Z
  M 213.11 281.53
  C 224.97 284.08 224.49 268.74 213.05 271.68
  A 0.70 0.45 85.7 0 0 212.70 272.32
  L 212.66 280.81
  A 0.76 0.55 -86.1 0 0 213.11 281.53
  Z"
/>
<path fill="#151515" d="
  M 344.75 271.50
  L 336.25 271.50
  A 0.50 0.50 0.0 0 1 335.75 271.00
  L 335.75 266.00
  A 0.53 0.51 89.4 0 1 336.25 265.47
  L 361.75 265.41
  A 0.75 0.60 0.0 0 1 362.50 266.01
  L 362.50 271.00
  A 0.50 0.50 0.0 0 1 362.00 271.50
  L 353.25 271.50
  A 0.75 0.47 90.0 0 0 352.78 272.25
  L 352.85 300.00
  A 0.75 0.35 -90.0 0 1 352.50 300.75
  L 345.75 300.75
  A 0.75 0.42 90.0 0 1 345.33 300.00
  L 345.41 272.00
  A 0.66 0.50 0.0 0 0 344.75 271.50
  Z"
/>
<path fill="#151515" d="
  M 369.60 294.06
  L 369.86 272.50
  A 1.07 0.72 -77.9 0 0 369.54 271.69
  Q 368.03 270.53 366.17 270.11
  A 0.94 0.55 8.6 0 1 365.43 269.51
  L 365.28 265.76
  A 0.70 0.36 -0.6 0 1 365.99 265.38
  L 380.75 265.32
  A 0.48 0.42 0.6 0 1 381.23 265.75
  L 381.13 269.33
  A 0.88 0.35 -22.8 0 1 380.59 269.86
  L 377.28 271.50
  A 1.17 0.39 87.2 0 0 377.00 272.50
  L 377.00 293.50
  A 1.63 1.49 -86.4 0 0 378.28 295.10
  Q 382.49 295.67 381.08 300.20
  A 0.77 0.54 -78.5 0 1 380.50 300.75
  L 366.00 300.75
  A 0.75 0.50 0.0 0 1 365.25 300.25
  L 365.25 297.00
  A 1.02 0.96 78.2 0 1 365.82 296.07
  L 368.93 294.68
  A 1.01 0.41 -20.5 0 0 369.60 294.06
  Z"
/>
<path fill="#151515" d="
  M 399.14 292.97
  L 407.46 265.86
  A 0.83 0.41 -75.7 0 1 408.00 265.22
  L 414.75 265.47
  A 0.46 0.36 -77.8 0 1 415.04 266.06
  L 403.38 300.09
  A 0.94 0.52 -75.4 0 1 402.75 300.75
  L 395.32 300.72
  A 0.70 0.45 77.3 0 1 394.82 300.23
  L 383.24 266.26
  A 0.73 0.59 78.9 0 1 383.74 265.30
  L 390.06 265.32
  A 0.99 0.63 76.9 0 1 390.75 266.00
  Q 395.30 279.34 398.84 292.97
  Q 398.97 293.49 399.14 292.97
  Z"
/>
<path fill="#151515" d="
  M 179.75 287.75
  L 179.75 300.00
  A 0.75 0.50 -90.0 0 1 179.25 300.75
  L 172.75 300.75
  A 0.75 0.50 90.0 0 1 172.25 300.00
  L 172.25 266.00
  A 0.53 0.45 -0.6 0 1 172.77 265.55
  Q 179.43 265.46 185.99 265.56
  C 197.73 265.73 200.80 279.25 190.83 285.06
  A 0.64 0.58 -31.8 0 0 190.59 285.92
  L 200.20 300.02
  Q 200.63 300.66 200.07 300.66
  L 192.43 300.65
  A 1.08 0.30 60.7 0 1 191.77 299.99
  L 184.13 287.85
  A 1.26 0.83 67.9 0 0 183.25 287.24
  L 180.25 287.25
  A 0.50 0.50 0.0 0 0 179.75 287.75
  Z
  M 180.27 280.98
  C 192.72 281.94 191.09 269.29 180.22 271.62
  A 0.67 0.58 84.7 0 0 179.76 272.26
  L 179.75 280.50
  A 0.56 0.47 2.6 0 0 180.27 280.98
  Z"
/>
<rect fill="#ffffff" x="-8.64" y="-11.68" transform="translate(147.94,282.89) rotate(-0.2)" width="17.28" height="23.36" rx="7.99"/>
<rect fill="#ffffff" x="-8.58" y="-11.72" transform="translate(251.51,282.90) rotate(-0.1)" width="17.16" height="23.44" rx="7.96"/>
<rect fill="#ffffff" x="-8.65" y="-11.69" transform="translate(434.45,282.90) rotate(-0.1)" width="17.30" height="23.38" rx="8.00"/>
<path fill="#ffffff" d="
  M 317.19 285.83
  A 0.44 0.44 -81.6 0 1 316.77 285.26
  L 320.80 271.77
  Q 321.17 270.55 321.53 271.74
  L 325.53 284.98
  A 0.61 0.57 80.5 0 1 325.01 285.77
  L 317.19 285.83
  Z"
/>
<path fill="#ffffff" d="
  M 180.22 271.62
  C 191.09 269.29 192.72 281.94 180.27 280.98
  A 0.56 0.47 2.6 0 1 179.75 280.50
  L 179.76 272.26
  A 0.67 0.58 84.7 0 1 180.22 271.62
  Z"
/>
<path fill="#ffffff" d="
  M 213.05 271.68
  C 224.49 268.74 224.97 284.08 213.11 281.53
  A 0.76 0.55 -86.1 0 1 212.66 280.81
  L 212.70 272.32
  A 0.70 0.45 85.7 0 1 213.05 271.68
  Z"
/>
<path fill="#ffffff" d="
  M 283.92 271.63
  C 294.80 269.29 295.98 282.44 283.75 280.85
  A 0.58 0.58 -85.1 0 1 283.25 280.25
  L 283.43 272.32
  A 0.76 0.63 85.8 0 1 283.92 271.63
  Z"
/>
<path fill="#adafab" d="
  M 784.26 347.74
  L 721.50 347.96
  Q 722.02 346.52 723.57 346.52
  Q 751.53 346.48 778.48 346.51
  Q 779.73 346.51 780.98 346.36
  Q 784.02 345.99 784.26 347.74
  Z"
/>
<path fill="#b4b0b6" d="
  M 367.75 347.96
  Q 237.91 348.08 108.06 348.00
  Q 105.85 348.00 103.75 346.93
  Q 130.00 346.03 146.93 346.56
  C 156.97 346.88 169.24 346.52 175.89 346.54
  C 239.17 346.73 302.47 346.46 365.75 346.52
  Q 367.57 346.52 367.75 347.96
  Z"
/>
</svg>
