<?xml version="1.0" encoding="UTF-8" standalone="no"?>
<!DOCTYPE svg PUBLIC "-//W3C//DTD SVG 1.1//EN" "http://www.w3.org/Graphics/SVG/1.1/DTD/svg11.dtd">
<svg xmlns="http://www.w3.org/2000/svg" version="1.1" viewBox="0 0 1133 830">
<path fill="#292929" d="
  M 430.04 504.50
  A 1.58 1.56 -88.6 0 1 429.27 503.68
  C 389.67 407.97 390.16 300.22 429.37 204.54
  A 1.36 1.27 -2.7 0 1 430.02 203.87
  Q 504.74 167.96 587.69 163.19
  Q 594.62 162.79 617.75 162.95
  C 678.41 163.35 737.76 177.37 792.45 203.57
  A 1.71 1.68 -88.7 0 1 793.29 204.46
  C 832.93 300.31 832.79 407.66 793.55 503.58
  A 2.80 2.77 88.7 0 1 792.17 505.04
  C 678.06 559.66 544.11 559.70 430.04 504.50
  Z
  M 442.08 493.65
  Q 538.21 537.78 643.80 529.54
  Q 714.98 523.99 779.64 494.35
  A 3.24 3.22 -1.9 0 0 781.30 492.58
  C 815.95 403.71 816.00 304.05 780.81 215.13
  A 1.24 1.23 1.9 0 0 780.17 214.45
  Q 718.59 186.13 649.99 179.49
  Q 632.91 177.83 618.82 177.99
  Q 618.47 177.99 617.89 177.73
  C 615.78 176.79 605.96 177.87 601.41 177.93
  C 546.63 178.72 492.21 191.76 442.51 214.61
  A 1.29 1.25 89.1 0 0 441.87 215.29
  C 406.57 304.83 406.81 403.95 441.72 493.27
  A 0.75 0.73 -89.2 0 0 442.08 493.65
  Z"
/>
<path fill="#292929" d="
  M 552.01 230.99
  Q 558.88 237.80 560.31 247.52
  A 0.55 0.53 -7.1 0 1 559.82 248.13
  Q 550.98 248.91 542.52 251.60
  A 0.96 0.54 55.1 0 1 541.70 251.21
  Q 535.42 243.72 526.72 241.82
  Q 522.05 240.79 520.22 240.18
  A 0.99 0.96 -53.7 0 0 519.31 240.33
  Q 518.80 240.70 519.05 241.50
  Q 519.36 242.49 521.96 243.52
  Q 529.81 246.65 533.70 254.03
  A 0.94 0.92 63.4 0 1 533.29 255.30
  C 531.85 255.99 509.54 267.11 513.94 268.60
  A 1.62 1.28 -39.4 0 0 514.89 268.58
  C 530.74 263.24 545.48 259.06 562.31 258.05
  C 563.53 257.98 564.68 258.49 565.99 258.48
  C 576.53 258.37 586.64 264.18 579.31 276.23
  A 1.44 1.28 6.4 0 1 578.47 276.82
  Q 550.83 283.31 524.08 292.89
  A 1.80 1.72 73.1 0 0 523.01 295.00
  L 524.61 301.23
  A 0.92 0.90 89.2 0 0 525.26 301.88
  C 533.94 304.05 542.92 305.48 551.52 307.34
  A 1.28 1.26 -70.8 0 1 552.38 309.15
  Q 538.37 337.44 534.69 368.78
  A 1.37 1.33 1.5 0 1 533.42 369.95
  C 513.51 371.18 493.10 373.54 473.92 379.94
  A 1.26 1.25 -9.6 0 0 473.06 381.14
  C 473.13 385.10 473.55 388.17 476.28 391.34
  C 496.41 414.78 522.16 433.83 549.29 448.39
  C 550.73 449.17 551.40 448.14 550.73 446.87
  Q 547.12 440.01 542.97 432.13
  A 2.76 2.73 85.2 0 0 541.44 430.82
  C 536.53 429.13 531.27 427.76 527.01 425.26
  C 513.93 417.60 503.77 404.13 496.87 390.88
  A 0.30 0.29 -12.2 0 1 497.15 390.46
  C 516.63 391.31 534.74 397.53 553.02 403.63
  Q 575.02 410.97 598.20 408.30
  C 611.02 406.82 623.78 404.57 636.71 404.46
  Q 636.91 404.46 640.09 403.99
  C 641.77 403.74 643.29 404.46 644.75 404.46
  Q 649.95 404.46 654.77 404.74
  Q 656.47 404.84 657.58 406.13
  C 667.48 417.69 677.80 427.17 692.57 432.73
  Q 717.69 442.18 743.44 449.82
  Q 745.22 450.35 747.98 453.28
  Q 762.59 468.84 772.93 487.21
  A 0.74 0.74 63.3 0 1 772.59 488.24
  C 669.56 534.16 552.41 534.12 449.61 487.82
  A 2.23 2.18 2.3 0 1 448.45 486.59
  C 417.11 404.91 415.80 314.95 444.58 232.39
  Q 446.51 226.85 448.82 221.45
  A 1.33 1.31 89.6 0 1 449.47 220.78
  C 552.42 174.28 670.28 174.28 773.29 220.60
  A 1.22 1.18 -89.1 0 1 773.92 221.27
  C 805.64 302.74 806.89 392.49 778.73 474.71
  Q 778.30 475.97 777.65 474.80
  Q 768.26 458.01 757.51 442.21
  Q 756.32 440.47 754.41 439.49
  Q 742.71 433.49 731.67 426.52
  C 725.39 422.55 722.93 417.07 721.23 410.00
  C 717.17 393.12 711.58 377.04 700.63 364.17
  A 0.44 0.41 58.2 0 1 700.76 363.49
  L 711.96 358.96
  A 1.71 1.70 73.8 0 0 712.99 357.07
  C 709.62 339.15 694.07 323.72 678.43 315.30
  Q 677.42 314.76 677.27 315.73
  A 1.43 1.00 39.5 0 0 677.52 316.64
  C 685.74 328.65 693.78 342.09 690.54 357.26
  A 0.48 0.46 13.4 0 1 689.95 357.61
  C 664.95 350.92 636.15 350.02 610.57 351.36
  C 594.10 352.22 581.55 344.63 583.25 326.54
  Q 585.20 305.77 591.74 285.94
  A 0.53 0.52 -76.7 0 1 592.31 285.58
  L 603.50 286.98
  Q 605.04 287.18 606.43 286.40
  Q 618.47 279.70 627.62 269.37
  Q 629.44 267.31 626.76 267.79
  L 597.06 273.03
  Q 596.30 273.16 596.56 272.46
  C 604.38 251.31 603.40 224.93 580.26 213.73
  Q 579.44 213.34 579.25 214.05
  A 1.20 0.82 40.6 0 0 579.49 214.94
  C 587.16 225.17 591.51 236.58 586.78 249.27
  A 0.73 0.68 -78.4 0 1 586.10 249.75
  C 584.24 249.69 582.98 248.68 581.37 248.48
  Q 577.72 248.01 573.59 247.96
  A 1.86 1.86 81.5 0 1 571.85 246.67
  C 568.42 236.14 557.96 227.02 547.89 223.79
  Q 544.37 222.66 546.80 225.45
  Q 549.30 228.31 552.01 230.99
  Z"
/>
<path fill="#292929" d="
  M 215.80 697.64
  A 1.00 0.90 6.2 0 1 215.00 696.74
  L 215.00 680.50
  A 0.39 0.37 9.5 0 1 215.51 680.15
  C 226.80 683.81 241.41 685.19 252.87 681.49
  C 263.22 678.14 263.96 668.74 263.97 659.31
  Q 264.02 631.93 264.01 604.55
  A 0.55 0.49 -90.0 0 1 264.50 604.00
  L 281.00 604.00
  A 0.42 0.37 -90.0 0 1 281.37 604.42
  Q 281.82 632.17 281.25 659.91
  Q 280.98 672.89 279.18 678.37
  C 270.78 703.91 236.27 701.67 215.80 697.64
  Z"
/>
<path fill="#292929" d="
  M 647.85 605.02
  C 664.11 608.09 678.36 617.10 683.90 633.40
  C 687.86 645.05 687.93 657.80 683.50 669.21
  C 675.13 690.81 654.35 697.88 632.53 697.97
  Q 612.27 698.05 592.03 697.98
  A 0.54 0.53 90.0 0 1 591.50 697.44
  L 591.50 604.50
  A 0.49 0.48 -90.0 0 1 591.98 604.01
  Q 612.22 603.98 632.58 604.01
  Q 642.58 604.03 647.85 605.02
  Z
  M 668.52 659.76
  C 672.35 644.70 666.42 627.46 650.53 622.00
  C 638.02 617.70 622.32 619.08 609.20 619.38
  A 0.62 0.50 89.5 0 0 608.71 620.00
  L 608.71 682.00
  A 0.55 0.49 90.0 0 0 609.20 682.55
  C 630.62 682.44 661.44 687.65 668.52 659.76
  Z"
/>
<path fill="#292929" d="
  M 317.01 697.69
  C 302.68 694.03 291.97 682.99 289.45 668.37
  C 288.71 664.11 288.50 657.02 289.38 652.48
  C 294.30 627.19 316.28 619.01 339.69 621.10
  C 359.15 622.85 374.67 633.10 377.53 653.53
  C 382.81 691.16 348.22 705.66 317.01 697.69
  Z
  M 314.19 679.06
  C 329.00 689.14 358.26 686.45 360.63 664.03
  C 363.02 641.43 343.90 632.89 324.53 637.07
  C 314.72 639.18 308.15 645.13 306.47 655.22
  C 305.16 663.12 306.88 674.09 314.19 679.06
  Z"
/>
<path fill="#292929" d="
  M 448.00 668.50
  A 0.56 0.49 -0.0 0 0 447.44 668.01
  L 403.50 668.00
  A 0.50 0.50 0.0 0 0 403.00 668.50
  L 403.00 697.25
  A 0.82 0.69 -90.0 0 1 402.31 698.07
  L 385.75 698.02
  A 0.77 0.50 90.0 0 1 385.25 697.25
  L 385.25 623.25
  A 0.75 0.75 0.0 0 1 386.00 622.50
  L 402.25 622.50
  A 0.75 0.73 89.6 0 1 402.99 623.25
  L 402.99 651.93
  A 0.63 0.51 90.0 0 0 403.50 652.56
  L 447.56 652.56
  A 0.50 0.49 -90.0 0 0 448.05 652.06
  L 448.01 623.25
  A 0.75 0.49 -90.0 0 1 448.50 622.50
  L 464.75 622.50
  A 0.81 0.71 -90.0 0 1 465.46 623.31
  L 465.48 697.44
  A 0.57 0.48 -90.0 0 1 465.00 698.01
  L 448.75 698.04
  A 0.79 0.74 89.6 0 1 448.00 697.25
  L 448.00 668.50
  Z"
/>
<path fill="#292929" d="
  M 538.96 697.59
  C 524.50 681.32 509.86 665.05 495.82 648.44
  Q 495.09 647.58 494.35 648.14
  A 1.18 0.78 78.3 0 0 494.01 649.00
  L 494.03 697.56
  A 0.53 0.44 0.0 0 1 493.50 698.00
  L 477.50 698.00
  A 0.50 0.50 0.0 0 1 477.00 697.50
  L 477.00 623.00
  A 0.50 0.50 0.0 0 1 477.50 622.50
  L 493.00 622.50
  A 2.73 2.18 65.0 0 1 494.84 623.41
  L 538.66 672.59
  Q 539.31 673.31 539.30 672.25
  L 539.27 623.25
  A 0.75 0.73 -90.0 0 1 540.00 622.50
  L 556.25 622.50
  A 0.75 0.75 0.0 0 1 557.00 623.25
  L 557.00 697.25
  A 0.82 0.69 -90.0 0 1 556.31 698.07
  L 539.75 698.02
  A 1.24 0.80 61.3 0 1 538.96 697.59
  Z"
/>
<path fill="#292929" d="
  M 711.75 682.50
  L 762.50 682.50
  A 0.52 0.50 -0.0 0 1 763.02 683.00
  L 763.08 697.56
  A 0.58 0.44 -0.0 0 1 762.50 698.00
  L 694.50 698.00
  A 0.50 0.50 0.0 0 1 694.00 697.50
  L 694.00 623.00
  A 0.50 0.50 0.0 0 1 694.50 622.50
  L 762.50 622.50
  A 0.52 0.50 -0.0 0 1 763.02 623.00
  L 763.09 637.44
  A 0.84 0.56 -0.3 0 1 762.25 638.01
  L 711.56 638.03
  A 0.49 0.40 -0.0 0 0 711.07 638.43
  L 711.13 652.06
  A 0.62 0.44 0.0 0 0 711.75 652.50
  L 750.50 652.50
  A 0.90 0.75 0.0 0 1 751.40 653.25
  L 751.48 667.50
  A 0.73 0.49 -0.4 0 1 750.75 668.00
  L 711.75 668.00
  A 0.68 0.68 0.0 0 0 711.07 668.68
  L 711.13 682.06
  A 0.62 0.44 0.0 0 0 711.75 682.50
  Z"
/>
<path fill="#292929" d="
  M 790.75 682.50
  L 841.50 682.50
  A 0.56 0.48 90.0 0 1 841.98 683.06
  L 842.00 697.25
  A 0.79 0.75 -90.0 0 1 841.25 698.04
  L 773.00 698.01
  A 0.57 0.49 -90.0 0 1 772.51 697.44
  L 772.50 623.50
  A 1.00 1.00 0.0 0 1 773.50 622.50
  L 841.50 622.50
  A 0.56 0.48 90.0 0 1 841.98 623.06
  L 841.99 637.50
  A 0.55 0.55 0.0 0 1 841.44 638.05
  L 790.56 638.04
  A 0.43 0.39 0.0 0 0 790.13 638.43
  L 790.13 652.06
  A 0.62 0.44 0.0 0 0 790.75 652.50
  L 829.25 652.50
  A 0.77 0.50 0.0 0 1 830.02 653.00
  L 830.08 667.56
  A 0.58 0.45 -0.0 0 1 829.50 668.01
  L 790.81 668.04
  A 0.68 0.64 0.0 0 0 790.13 668.68
  L 790.13 682.06
  A 0.62 0.44 0.0 0 0 790.75 682.50
  Z"
/>
<path fill="#292929" d="
  M 931.08 697.44
  Q 931.51 698.00 930.50 698.00
  L 910.75 698.00
  A 1.17 0.58 60.1 0 1 910.00 697.50
  L 889.81 670.94
  A 1.16 0.86 66.6 0 0 889.00 670.47
  L 869.74 670.36
  A 0.71 0.70 -89.6 0 0 869.03 671.07
  L 869.06 697.25
  A 0.82 0.75 -0.0 0 1 868.24 698.00
  L 852.00 698.00
  A 0.56 0.50 90.0 0 1 851.50 697.44
  L 851.50 623.25
  A 0.69 0.68 -90.0 0 1 852.18 622.56
  Q 877.78 622.31 903.50 622.73
  C 913.56 622.90 923.09 628.00 926.47 638.02
  C 930.96 651.32 924.64 665.61 910.58 669.04
  A 0.59 0.57 63.9 0 0 910.29 669.96
  L 931.08 697.44
  Z
  M 900.30 654.90
  C 905.90 655.17 910.22 652.17 910.17 646.19
  C 910.11 639.19 904.58 638.26 898.56 638.25
  Q 884.20 638.24 869.97 638.26
  A 0.74 0.72 90.0 0 0 869.25 639.00
  L 869.25 654.00
  A 0.77 0.73 90.0 0 0 869.98 654.77
  C 880.04 654.71 890.27 654.44 900.30 654.90
  Z"
/>
<path fill="#292929" d="
  M 955.50 652.56
  L 994.25 652.52
  A 0.77 0.48 0.0 0 1 995.02 653.00
  L 995.08 667.56
  A 0.58 0.44 -0.0 0 1 994.50 668.00
  L 955.75 668.00
  A 0.77 0.75 -0.0 0 0 954.98 668.75
  L 954.93 681.81
  A 0.73 0.57 90.0 0 0 955.50 682.54
  L 1006.50 682.51
  A 0.55 0.48 90.0 0 1 1006.98 683.06
  L 1006.99 697.50
  A 0.51 0.49 89.4 0 1 1006.50 698.02
  L 938.00 698.01
  A 0.56 0.49 90.0 0 1 937.51 697.45
  Q 937.50 668.38 937.76 639.32
  Q 937.83 631.66 937.39 623.94
  A 1.36 1.36 88.4 0 1 938.75 622.50
  L 1006.50 622.50
  A 0.56 0.48 90.0 0 1 1006.98 623.06
  L 1007.00 637.50
  A 0.69 0.53 -0.0 0 1 1006.31 638.03
  L 955.50 638.01
  A 0.51 0.49 0.0 0 0 954.99 638.50
  L 954.94 652.31
  A 0.56 0.25 0.0 0 0 955.50 652.56
  Z"
/>
</svg>
