<?xml version="1.0" encoding="UTF-8" standalone="no"?>
<!DOCTYPE svg PUBLIC "-//W3C//DTD SVG 1.1//EN" "http://www.w3.org/Graphics/SVG/1.1/DTD/svg11.dtd">
<svg xmlns="http://www.w3.org/2000/svg" version="1.1" viewBox="0 0 1280 559">
<g stroke-width="0.00" fill="none" stroke-linecap="butt">
<path stroke="#e4e4e5" stroke-opacity="0.898" vector-effect="non-scaling-stroke" d="
  M 1210.79 120.25
  L 1211.96 127.75"
/>
<path stroke="#e4e4e5" stroke-opacity="0.898" vector-effect="non-scaling-stroke" d="
  M 62.29 161.50
  Q 63.35 158.35 62.96 155.00"
/>
<path stroke="#d2d2d5" stroke-opacity="0.788" vector-effect="non-scaling-stroke" d="
  M 62.96 155.00
  L 63.04 153.50"
/>
<path stroke="#e4e4e5" stroke-opacity="0.898" vector-effect="non-scaling-stroke" d="
  M 63.04 153.50
  C 63.36 149.99 65.16 147.51 65.52 144.15
  C 65.96 140.16 67.55 136.65 68.31 132.92
  Q 68.49 131.99 69.14 130.74
  C 70.00 129.09 70.00 126.61 70.62 125.11
  Q 74.53 115.73 79.13 106.66
  Q 80.63 103.73 79.76 102.73
  C 78.15 100.88 76.61 103.71 75.96 104.78
  Q 75.60 105.36 75.65 104.70
  L 75.71 104.00"
/>
<path stroke="#8e8987" vector-effect="non-scaling-stroke" d="
  M 159.00 485.75
  C 446.21 485.35 698.08 486.15 1021.20 485.96
  C 1049.29 485.95 1077.46 486.07 1105.54 485.80
  C 1117.09 485.68 1130.17 486.56 1140.50 484.49
  C 1165.39 479.51 1185.78 462.89 1196.21 439.72
  Q 1202.76 425.18 1202.86 412.50
  Q 1203.36 345.78 1202.80 152.38
  Q 1202.77 142.11 1201.48 135.73
  C 1195.32 105.26 1171.53 80.60 1140.65 74.56
  Q 1133.88 73.24 1120.75 73.24
  Q 638.96 73.27 157.16 73.24
  Q 146.42 73.24 139.94 74.53
  C 105.67 81.36 79.17 110.30 77.25 145.75
  C 76.87 152.72 77.24 162.10 77.24 168.09
  Q 77.25 286.90 77.25 405.72
  Q 77.25 417.01 78.57 423.57
  C 84.69 454.11 108.91 478.46 139.58 484.45
  Q 146.30 485.76 159.00 485.75"
/>
<path stroke="#8e8987" vector-effect="non-scaling-stroke" d="
  M 970.13 156.21
  L 1043.01 364.37
  A 0.76 0.66 -8.1 0 1 1042.25 365.25
  L 990.50 365.36
  Q 989.38 365.36 990.28 365.96
  Q 1019.13 384.78 1048.05 403.45
  Q 1059.29 410.71 1072.76 410.80
  C 1085.60 410.88 1100.98 412.24 1110.84 404.75
  C 1124.74 394.21 1120.06 378.16 1114.81 363.44
  Q 1075.74 253.76 1036.57 144.13
  C 1031.83 130.87 1026.71 126.00 1012.05 126.00
  Q 985.73 125.99 959.20 126.01
  A 0.80 0.74 -79.3 0 0 958.49 126.54
  L 880.36 343.83
  A 0.40 0.39 -80.9 0 0 880.74 344.37
  C 904.87 343.44 929.03 344.61 953.18 343.98
  A 0.74 0.74 9.2 0 0 953.86 343.49
  Q 968.89 300.53 983.97 257.59
  C 985.52 253.17 983.97 248.48 983.17 243.31
  Q 976.51 199.90 969.74 156.50
  Q 969.70 156.27 969.74 156.16
  Q 969.93 155.65 970.13 156.21"
/>
<path stroke="#8e8987" vector-effect="non-scaling-stroke" d="
  M 712.09 233.17
  C 730.83 256.32 761.82 260.21 789.06 266.82
  C 796.56 268.64 810.70 271.90 813.20 279.79
  C 815.47 286.94 810.18 292.82 803.43 294.41
  C 789.52 297.70 763.10 299.41 757.20 281.76
  C 756.15 278.62 756.25 274.92 756.12 271.48
  A 0.51 0.43 88.6 0 0 755.69 270.99
  L 697.25 271.00
  A 0.59 0.46 -85.9 0 0 696.78 271.52
  C 691.96 314.88 726.87 338.88 765.00 344.21
  C 790.69 347.80 817.98 345.89 842.00 335.45
  C 864.20 325.80 876.11 308.77 879.42 285.48
  C 884.67 248.53 865.93 224.14 830.50 215.00
  Q 815.16 211.05 794.01 206.48
  C 786.60 204.88 773.08 201.53 768.48 195.27
  C 761.10 185.24 771.53 178.35 780.24 176.71
  C 795.51 173.84 816.96 175.56 817.14 196.55
  A 0.61 0.50 -0.5 0 0 817.75 197.04
  L 875.75 197.01
  A 0.53 0.47 -88.7 0 0 876.22 196.50
  C 878.08 137.69 817.73 124.88 772.25 129.97
  C 741.58 133.41 707.47 150.16 702.02 184.01
  C 699.40 200.21 701.47 220.04 712.09 233.17"
/>
<path stroke="#8e8987" vector-effect="non-scaling-stroke" d="
  M 203.25 259.74
  A 1.69 1.46 0.0 0 1 204.94 258.28
  L 288.25 258.26
  A 0.51 0.50 -90.0 0 0 288.75 257.75
  L 288.75 212.00
  A 0.75 0.75 0.0 0 0 288.00 211.25
  L 204.00 211.25
  A 0.75 0.50 0.0 0 1 203.25 210.75
  L 203.25 181.00
  A 0.50 0.50 0.0 0 1 203.75 180.50
  L 297.50 180.50
  A 0.51 0.50 -0.0 0 0 298.01 180.00
  L 298.02 132.44
  A 0.69 0.52 90.0 0 0 297.50 131.75
  L 140.25 131.75
  A 0.50 0.50 0.0 0 0 139.75 132.25
  L 139.75 342.25
  A 0.50 0.50 0.0 0 0 140.25 342.75
  L 297.25 342.75
  A 0.74 0.50 -0.0 0 0 297.99 342.25
  L 298.07 292.75
  A 0.57 0.50 0.0 0 0 297.50 292.25
  L 203.75 292.25
  A 0.50 0.50 0.0 0 1 203.25 291.75
  L 203.25 259.74"
/>
<path stroke="#8e8987" vector-effect="non-scaling-stroke" d="
  M 365.00 183.25
  L 365.00 342.25
  A 0.50 0.50 0.0 0 0 365.50 342.75
  L 428.25 342.75
  A 0.46 0.45 0.6 0 0 428.71 342.31
  L 428.96 183.25
  A 0.54 0.54 -0.2 0 1 429.50 182.71
  L 482.06 182.56
  A 0.56 0.31 90.0 0 0 482.37 182.00
  L 482.30 132.43
  A 0.68 0.55 90.0 0 0 481.75 131.75
  L 312.00 131.75
  A 0.50 0.50 0.0 0 0 311.50 132.25
  L 311.50 182.00
  A 0.50 0.42 0.0 0 0 312.00 182.42
  L 364.50 182.73
  A 0.52 0.50 -90.0 0 1 365.00 183.25"
/>
<path stroke="#8e8987" vector-effect="non-scaling-stroke" d="
  M 640.30 233.77
  Q 638.96 233.29 640.30 232.80
  C 658.74 226.15 671.53 215.85 674.53 196.20
  C 677.00 180.08 674.47 163.46 663.22 150.98
  Q 645.73 131.59 618.24 131.62
  Q 561.53 131.68 504.98 131.77
  A 0.48 0.48 -0.1 0 0 504.50 132.25
  L 504.50 342.25
  A 0.52 0.46 0.0 0 0 505.02 342.71
  Q 558.51 342.76 611.99 342.76
  Q 626.21 342.76 631.95 341.83
  C 659.31 337.36 679.57 315.33 680.25 287.49
  C 680.85 263.02 670.19 242.34 645.49 235.44
  Q 642.77 234.67 640.30 233.77"
/>
<path stroke="#8e8987" vector-effect="non-scaling-stroke" d="
  M 1160.78 322.73
  A 20.75 20.75 0.0 0 0 1140.03 301.98
  A 20.75 20.75 0.0 0 0 1119.28 322.73
  A 20.75 20.75 0.0 0 0 1140.03 343.48
  A 20.75 20.75 0.0 0 0 1160.78 322.73"
/>
<path stroke="#8e8987" vector-effect="non-scaling-stroke" d="
  M 236.5272 403.6120
  A 21.95 21.95 0.0 0 0 214.6156 381.6237
  L 210.3956 381.6164
  A 21.95 21.95 0.0 0 0 188.4073 403.5280
  L 188.3928 411.8480
  A 21.95 21.95 0.0 0 0 210.3044 433.8363
  L 214.5244 433.8436
  A 21.95 21.95 0.0 0 0 236.5127 411.9320
  L 236.5272 403.6120"
/>
<path stroke="#8e8987" vector-effect="non-scaling-stroke" d="
  M 385.59 403.57
  A 21.95 21.95 0.0 0 0 363.64 381.62
  L 359.40 381.62
  A 21.95 21.95 0.0 0 0 337.45 403.57
  L 337.45 411.89
  A 21.95 21.95 0.0 0 0 359.40 433.84
  L 363.64 433.84
  A 21.95 21.95 0.0 0 0 385.59 411.89
  L 385.59 403.57"
/>
<path stroke="#8e8987" vector-effect="non-scaling-stroke" d="
  M 648.8826 403.4581
  A 21.91 21.91 0.0 0 0 626.9344 381.5864
  L 622.7544 381.5937
  A 21.91 21.91 0.0 0 0 600.8827 403.5419
  L 600.8974 412.0019
  A 21.91 21.91 0.0 0 0 622.8456 433.8736
  L 627.0256 433.8663
  A 21.91 21.91 0.0 0 0 648.8973 411.9181
  L 648.8826 403.4581"
/>
<path stroke="#8e8987" vector-effect="non-scaling-stroke" d="
  M 145.08 400.53
  C 140.40 425.13 155.69 440.20 180.17 431.64
  A 1.63 1.41 -10.9 0 0 181.26 430.25
  L 181.26 422.75
  A 0.42 0.37 -10.6 0 0 180.71 422.42
  C 174.75 424.53 166.16 426.86 160.70 422.72
  C 155.45 418.73 154.75 409.57 155.71 403.46
  C 157.89 389.48 167.72 388.38 179.10 393.58
  A 0.57 0.52 23.9 0 0 179.85 393.33
  L 182.96 385.73
  A 0.67 0.57 23.7 0 0 182.58 384.95
  C 167.21 377.80 148.65 381.74 145.08 400.53"
/>
<path stroke="#8e8987" vector-effect="non-scaling-stroke" d="
  M 471.05 421.73
  L 474.46 432.80
  A 0.87 0.62 -5.9 0 0 475.25 433.25
  L 485.75 433.25
  A 0.44 0.43 79.9 0 0 486.15 432.66
  L 468.45 382.52
  A 0.77 0.73 79.9 0 0 467.75 382.00
  L 455.50 382.00
  A 0.84 0.69 -78.2 0 0 454.81 382.56
  L 437.36 432.33
  Q 437.05 433.24 436.53 432.48
  L 422.51 411.74
  A 0.59 0.52 55.9 0 1 422.61 410.97
  C 427.21 407.84 430.51 405.53 431.23 399.76
  C 433.82 379.07 409.95 382.16 396.76 382.29
  A 0.52 0.46 -0.6 0 0 396.25 382.75
  L 396.25 432.75
  A 0.50 0.50 0.0 0 0 396.75 433.25
  L 406.50 433.25
  A 0.50 0.50 0.0 0 0 407.00 432.75
  L 407.00 414.50
  A 0.75 0.50 -90.0 0 1 407.50 413.75
  L 412.50 413.75
  A 1.29 0.67 65.2 0 1 413.35 414.41
  L 424.55 432.45
  A 1.89 1.66 -13.7 0 0 426.07 433.24
  L 448.00 433.26
  A 0.79 0.73 8.0 0 0 448.74 432.75
  L 452.32 421.57
  A 0.74 0.65 8.2 0 1 453.00 421.12
  L 470.56 421.22
  A 0.71 0.43 77.3 0 1 471.05 421.73"
/>
<path stroke="#8e8987" vector-effect="non-scaling-stroke" d="
  M 256.63 433.26
  Q 256.98 433.36 257.33 433.24
  A 0.82 0.60 83.6 0 0 257.75 432.50
  L 257.75 414.50
  A 0.75 0.50 -90.0 0 1 258.25 413.75
  L 263.50 413.75
  A 1.25 0.49 62.9 0 1 264.29 414.45
  L 275.59 432.67
  A 0.92 0.82 72.2 0 0 276.32 433.10
  L 287.25 433.25
  Q 287.95 433.26 287.47 432.54
  L 273.53 411.96
  A 1.00 0.98 59.5 0 1 273.88 410.52
  Q 281.14 406.79 282.22 399.71
  C 285.27 379.80 260.34 381.49 247.58 382.42
  A 0.62 0.58 -2.1 0 0 247.00 383.00
  L 246.95 432.50
  A 0.72 0.54 89.6 0 0 247.50 433.22
  L 255.76 433.12
  Q 256.08 433.12 256.63 433.26"
/>
<path stroke="#8e8987" vector-effect="non-scaling-stroke" d="
  M 323.81 385.69
  C 316.32 380.62 303.54 382.17 294.76 382.29
  A 0.52 0.46 -0.6 0 0 294.25 382.75
  L 294.25 432.75
  A 0.50 0.50 0.0 0 0 294.75 433.25
  L 304.50 433.25
  A 0.50 0.50 0.0 0 0 305.00 432.75
  L 305.00 415.50
  A 0.54 0.51 -89.0 0 1 305.53 414.96
  C 312.82 415.31 321.06 415.06 326.00 408.98
  C 331.07 402.73 330.97 390.52 323.81 385.69"
/>
<path stroke="#8e8987" vector-effect="non-scaling-stroke" d="
  M 496.75 391.75
  L 496.75 432.75
  A 0.50 0.50 0.0 0 0 497.25 433.25
  L 507.00 433.25
  A 0.50 0.50 0.0 0 0 507.50 432.75
  L 507.50 391.75
  A 0.50 0.50 0.0 0 1 508.00 391.25
  L 521.00 391.25
  A 0.50 0.50 0.0 0 0 521.50 390.75
  L 521.50 382.75
  A 0.50 0.50 0.0 0 0 521.00 382.25
  L 484.00 382.25
  A 0.77 0.51 0.3 0 0 483.23 382.75
  L 483.15 390.81
  A 0.60 0.43 0.4 0 0 483.75 391.25
  L 496.25 391.25
  A 0.50 0.50 0.0 0 1 496.75 391.75"
/>
<path stroke="#8e8987" vector-effect="non-scaling-stroke" d="
  M 542.59 391.10
  L 547.75 388.76
  A 0.87 0.82 -12.8 0 0 548.26 388.00
  L 548.34 382.69
  A 0.59 0.43 0.5 0 0 547.75 382.25
  L 525.75 382.25
  A 0.50 0.50 0.0 0 0 525.25 382.75
  L 525.25 388.00
  A 0.84 0.83 12.0 0 0 525.75 388.76
  L 530.74 391.01
  A 0.87 0.78 13.3 0 1 531.25 391.75
  L 531.25 423.75
  A 0.93 0.78 79.9 0 1 530.78 424.56
  L 525.81 426.80
  A 0.93 0.67 -15.8 0 0 525.25 427.50
  L 525.25 432.75
  A 0.75 0.50 0.0 0 0 526.00 433.25
  L 547.75 433.25
  A 0.66 0.43 -0.4 0 0 548.41 432.81
  L 548.35 427.69
  A 0.92 0.85 13.7 0 0 547.83 426.90
  L 542.42 424.35
  A 1.01 0.70 -81.6 0 1 542.00 423.50
  L 542.00 391.75
  A 0.95 0.55 -17.7 0 1 542.59 391.10"
/>
<path stroke="#8e8987" vector-effect="non-scaling-stroke" d="
  M 573.74 422.55
  Q 568.24 402.50 561.61 382.79
  A 0.78 0.59 78.1 0 0 561.00 382.26
  L 551.06 382.27
  A 0.36 0.31 79.4 0 0 550.78 382.74
  L 567.73 432.80
  A 0.65 0.50 78.5 0 0 568.25 433.25
  L 579.00 433.25
  A 0.97 0.86 8.4 0 0 579.89 432.67
  L 596.77 383.01
  A 0.58 0.56 -80.5 0 0 596.25 382.25
  L 586.75 382.25
  A 0.76 0.71 8.2 0 0 586.06 382.73
  Q 579.43 402.40 573.90 422.41
  Q 573.80 422.76 573.74 422.55"
/>
<path stroke="#8e8987" vector-effect="non-scaling-stroke" d="
  M 597.08 212.71
  C 606.45 212.66 614.44 207.70 614.62 197.50
  C 614.84 184.69 610.92 177.20 597.18 176.84
  C 586.29 176.56 575.43 177.10 564.49 176.66
  A 0.71 0.60 1.4 0 0 563.75 177.25
  L 563.75 212.25
  A 0.54 0.46 0.0 0 0 564.29 212.71
  Q 580.73 212.81 597.08 212.71"
/>
<path stroke="#8e8987" vector-effect="non-scaling-stroke" d="
  M 609.49 292.28
  C 623.48 286.11 621.36 257.86 603.24 257.78
  Q 583.79 257.70 564.29 257.79
  A 0.54 0.46 0.0 0 0 563.75 258.25
  L 563.75 293.25
  A 0.53 0.47 -0.0 0 0 564.28 293.72
  Q 581.29 293.75 598.30 293.76
  Q 606.13 293.77 609.49 292.28"
/>
<path stroke="#8e8987" vector-effect="non-scaling-stroke" d="
  M 1157.16 322.71
  A 17.13 17.13 0.0 0 0 1140.03 305.58
  A 17.13 17.13 0.0 0 0 1122.90 322.71
  A 17.13 17.13 0.0 0 0 1140.03 339.84
  A 17.13 17.13 0.0 0 0 1157.16 322.71"
/>
<path stroke="#8e8987" vector-effect="non-scaling-stroke" d="
  M 1142.76 324.49
  Q 1150.24 320.98 1147.22 313.87
  C 1145.07 308.80 1136.32 309.86 1131.57 310.12
  A 0.63 0.60 88.6 0 0 1131.00 310.75
  L 1131.00 334.50
  A 0.58 0.44 87.1 0 0 1131.50 335.09
  Q 1132.78 334.89 1133.99 335.25
  A 0.70 0.41 -85.8 0 0 1134.50 334.50
  L 1134.50 325.75
  A 0.70 0.70 -4.3 0 1 1135.10 325.06
  C 1140.89 324.17 1142.79 329.96 1145.06 334.53
  A 1.04 0.66 72.1 0 0 1145.76 335.11
  L 1148.75 335.24
  A 0.49 0.44 77.5 0 0 1149.14 334.55
  C 1148.00 332.13 1145.02 326.10 1142.76 324.91
  Q 1142.33 324.69 1142.76 324.49"
/>
<path stroke="#8e8987" vector-effect="non-scaling-stroke" d="
  M 1135.52 320.94
  Q 1139.21 321.33 1142.83 320.37
  A 1.50 1.16 -76.9 0 0 1143.63 319.72
  C 1147.05 313.88 1138.80 313.59 1135.08 314.14
  A 0.64 0.54 -6.6 0 0 1134.53 314.72
  L 1134.81 320.32
  A 0.80 0.64 2.3 0 0 1135.52 320.94"
/>
<path stroke="#8e8987" vector-effect="non-scaling-stroke" d="
  M 204.94 422.56
  C 210.57 426.36 219.85 425.69 223.02 418.88
  C 226.76 410.82 227.01 393.04 215.51 391.00
  Q 204.85 389.12 201.02 398.22
  C 198.41 404.41 198.74 418.38 204.94 422.56"
/>
<path stroke="#8e8987" vector-effect="non-scaling-stroke" d="
  M 349.29 413.73
  C 350.68 421.34 355.51 425.80 363.50 424.66
  Q 371.81 423.46 373.44 415.24
  C 375.12 406.76 375.44 393.14 364.76 391.02
  C 349.67 388.04 347.30 402.84 349.29 413.73"
/>
<path stroke="#8e8987" vector-effect="non-scaling-stroke" d="
  M 617.43 422.56
  C 622.33 425.80 632.01 425.86 635.04 419.96
  C 640.23 409.85 639.53 387.62 621.87 390.76
  C 610.35 392.80 610.70 411.16 614.28 418.89
  Q 615.33 421.17 617.43 422.56"
/>
<path stroke="#8e8987" vector-effect="non-scaling-stroke" d="
  M 461.57 391.23
  L 455.42 411.34
  A 0.52 0.39 -79.3 0 0 455.75 412.00
  L 467.75 412.00
  A 0.57 0.39 78.0 0 0 468.05 411.28
  L 461.85 391.23
  Q 461.71 390.77 461.57 391.23"
/>
<path stroke="#8e8987" vector-effect="non-scaling-stroke" d="
  M 416.06 392.00
  Q 412.12 390.54 407.77 391.42
  A 0.63 0.56 85.5 0 0 407.32 392.01
  L 407.09 404.25
  A 0.63 0.56 -88.1 0 0 407.62 404.89
  C 411.66 405.13 417.05 404.99 419.51 401.45
  C 422.10 397.71 420.27 393.56 416.06 392.00"
/>
<path stroke="#8e8987" vector-effect="non-scaling-stroke" d="
  M 271.31 397.34
  C 271.12 391.04 263.13 390.60 258.48 391.40
  A 0.63 0.58 86.2 0 0 258.00 392.00
  L 258.00 404.50
  A 0.51 0.45 -0.6 0 0 258.52 404.95
  C 264.02 404.83 271.54 405.19 271.31 397.34"
/>
<path stroke="#8e8987" vector-effect="non-scaling-stroke" d="
  M 315.81 392.69
  Q 311.35 390.22 305.72 391.41
  A 0.61 0.59 84.1 0 0 305.25 392.00
  L 305.25 405.50
  A 0.58 0.46 3.3 0 0 305.78 405.97
  C 309.52 406.33 315.11 406.14 317.40 402.74
  C 319.18 400.09 318.88 394.39 315.81 392.69"
/>
</g>
<path fill="#ffffff" d="
  M 1210.79 120.25
  L 1211.96 127.75
  C 1213.25 133.44 1216.34 139.14 1216.96 144.76
  Q 1218.66 160.36 1218.54 173.00
  Q 1218.03 224.62 1217.96 276.25
  Q 1217.96 278.69 1219.56 279.17
  A 0.55 0.49 14.3 0 1 1219.96 279.76
  C 1219.70 281.02 1219.11 281.46 1219.13 282.88
  C 1219.20 293.20 1218.83 304.92 1218.80 313.80
  Q 1218.63 360.40 1218.52 407.00
  Q 1218.51 409.68 1218.29 412.35
  C 1217.82 417.85 1215.09 423.11 1213.93 428.57
  C 1211.45 440.26 1207.41 450.18 1200.72 460.13
  C 1182.39 487.35 1151.36 501.17 1118.68 501.32
  C 1017.52 501.82 916.36 500.71 815.19 501.07
  C 607.38 501.82 399.56 501.49 191.75 501.50
  C 172.41 501.50 150.86 501.89 133.06 497.54
  C 101.44 489.81 75.14 467.63 66.16 436.13
  C 64.52 430.39 63.69 422.69 61.90 416.08
  Q 61.26 413.71 61.25 411.25
  L 60.47 282.57
  A 0.94 0.65 -82.9 0 0 60.04 281.75
  L 55.94 280.14
  Q 55.59 280.00 55.96 279.95
  L 61.31 279.29
  A 0.58 0.55 86.1 0 0 61.79 278.71
  C 61.06 236.97 62.54 200.58 62.29 161.50
  Q 63.35 158.35 62.96 155.00
  L 63.04 153.50
  C 63.36 149.99 65.16 147.51 65.52 144.15
  C 65.96 140.16 67.55 136.65 68.31 132.92
  Q 68.49 131.99 69.14 130.74
  C 70.00 129.09 70.00 126.61 70.62 125.11
  Q 74.53 115.73 79.13 106.66
  Q 80.63 103.73 79.76 102.73
  C 78.15 100.88 76.61 103.71 75.96 104.78
  Q 75.60 105.36 75.65 104.70
  L 75.71 104.00
  C 90.03 78.58 121.32 58.95 150.81 58.69
  C 309.76 57.29 510.55 59.58 627.76 58.17
  Q 637.69 58.05 647.76 58.12
  C 803.50 59.30 959.26 57.50 1115.01 58.10
  Q 1128.98 58.15 1134.99 58.92
  Q 1159.80 62.06 1180.32 77.17
  C 1193.94 87.20 1206.17 103.70 1210.79 120.25
  Z
  M 159.00 485.75
  C 446.21 485.35 698.08 486.15 1021.20 485.96
  C 1049.29 485.95 1077.46 486.07 1105.54 485.80
  C 1117.09 485.68 1130.17 486.56 1140.50 484.49
  C 1165.39 479.51 1185.78 462.89 1196.21 439.72
  Q 1202.76 425.18 1202.86 412.50
  Q 1203.36 345.78 1202.80 152.38
  Q 1202.77 142.11 1201.48 135.73
  C 1195.32 105.26 1171.53 80.60 1140.65 74.56
  Q 1133.88 73.24 1120.75 73.24
  Q 638.96 73.27 157.16 73.24
  Q 146.42 73.24 139.94 74.53
  C 105.67 81.36 79.17 110.30 77.25 145.75
  C 76.87 152.72 77.24 162.10 77.24 168.09
  Q 77.25 286.90 77.25 405.72
  Q 77.25 417.01 78.57 423.57
  C 84.69 454.11 108.91 478.46 139.58 484.45
  Q 146.30 485.76 159.00 485.75
  Z"
/>
<path fill="#1d120e" d="
  M 1021.20 485.96
  C 698.08 486.15 446.21 485.35 159.00 485.75
  Q 146.30 485.76 139.58 484.45
  C 108.91 478.46 84.69 454.11 78.57 423.57
  Q 77.25 417.01 77.25 405.72
  Q 77.25 286.90 77.24 168.09
  C 77.24 162.10 76.87 152.72 77.25 145.75
  C 79.17 110.30 105.67 81.36 139.94 74.53
  Q 146.42 73.24 157.16 73.24
  Q 638.96 73.27 1120.75 73.24
  Q 1133.88 73.24 1140.65 74.56
  C 1171.53 80.60 1195.32 105.26 1201.48 135.73
  Q 1202.77 142.11 1202.80 152.38
  Q 1203.36 345.78 1202.86 412.50
  Q 1202.76 425.18 1196.21 439.72
  C 1185.78 462.89 1165.39 479.51 1140.50 484.49
  C 1130.17 486.56 1117.09 485.68 1105.54 485.80
  C 1077.46 486.07 1049.29 485.95 1021.20 485.96
  Z
  M 970.13 156.21
  L 1043.01 364.37
  A 0.76 0.66 -8.1 0 1 1042.25 365.25
  L 990.50 365.36
  Q 989.38 365.36 990.28 365.96
  Q 1019.13 384.78 1048.05 403.45
  Q 1059.29 410.71 1072.76 410.80
  C 1085.60 410.88 1100.98 412.24 1110.84 404.75
  C 1124.74 394.21 1120.06 378.16 1114.81 363.44
  Q 1075.74 253.76 1036.57 144.13
  C 1031.83 130.87 1026.71 126.00 1012.05 126.00
  Q 985.73 125.99 959.20 126.01
  A 0.80 0.74 -79.3 0 0 958.49 126.54
  L 880.36 343.83
  A 0.40 0.39 -80.9 0 0 880.74 344.37
  C 904.87 343.44 929.03 344.61 953.18 343.98
  A 0.74 0.74 9.2 0 0 953.86 343.49
  Q 968.89 300.53 983.97 257.59
  C 985.52 253.17 983.97 248.48 983.17 243.31
  Q 976.51 199.90 969.74 156.50
  Q 969.70 156.27 969.74 156.16
  Q 969.93 155.65 970.13 156.21
  Z
  M 712.09 233.17
  C 730.83 256.32 761.82 260.21 789.06 266.82
  C 796.56 268.64 810.70 271.90 813.20 279.79
  C 815.47 286.94 810.18 292.82 803.43 294.41
  C 789.52 297.70 763.10 299.41 757.20 281.76
  C 756.15 278.62 756.25 274.92 756.12 271.48
  A 0.51 0.43 88.6 0 0 755.69 270.99
  L 697.25 271.00
  A 0.59 0.46 -85.9 0 0 696.78 271.52
  C 691.96 314.88 726.87 338.88 765.00 344.21
  C 790.69 347.80 817.98 345.89 842.00 335.45
  C 864.20 325.80 876.11 308.77 879.42 285.48
  C 884.67 248.53 865.93 224.14 830.50 215.00
  Q 815.16 211.05 794.01 206.48
  C 786.60 204.88 773.08 201.53 768.48 195.27
  C 761.10 185.24 771.53 178.35 780.24 176.71
  C 795.51 173.84 816.96 175.56 817.14 196.55
  A 0.61 0.50 -0.5 0 0 817.75 197.04
  L 875.75 197.01
  A 0.53 0.47 -88.7 0 0 876.22 196.50
  C 878.08 137.69 817.73 124.88 772.25 129.97
  C 741.58 133.41 707.47 150.16 702.02 184.01
  C 699.40 200.21 701.47 220.04 712.09 233.17
  Z
  M 203.25 259.74
  A 1.69 1.46 0.0 0 1 204.94 258.28
  L 288.25 258.26
  A 0.51 0.50 -90.0 0 0 288.75 257.75
  L 288.75 212.00
  A 0.75 0.75 0.0 0 0 288.00 211.25
  L 204.00 211.25
  A 0.75 0.50 0.0 0 1 203.25 210.75
  L 203.25 181.00
  A 0.50 0.50 0.0 0 1 203.75 180.50
  L 297.50 180.50
  A 0.51 0.50 -0.0 0 0 298.01 180.00
  L 298.02 132.44
  A 0.69 0.52 90.0 0 0 297.50 131.75
  L 140.25 131.75
  A 0.50 0.50 0.0 0 0 139.75 132.25
  L 139.75 342.25
  A 0.50 0.50 0.0 0 0 140.25 342.75
  L 297.25 342.75
  A 0.74 0.50 -0.0 0 0 297.99 342.25
  L 298.07 292.75
  A 0.57 0.50 0.0 0 0 297.50 292.25
  L 203.75 292.25
  A 0.50 0.50 0.0 0 1 203.25 291.75
  L 203.25 259.74
  Z
  M 365.00 183.25
  L 365.00 342.25
  A 0.50 0.50 0.0 0 0 365.50 342.75
  L 428.25 342.75
  A 0.46 0.45 0.6 0 0 428.71 342.31
  L 428.96 183.25
  A 0.54 0.54 -0.2 0 1 429.50 182.71
  L 482.06 182.56
  A 0.56 0.31 90.0 0 0 482.37 182.00
  L 482.30 132.43
  A 0.68 0.55 90.0 0 0 481.75 131.75
  L 312.00 131.75
  A 0.50 0.50 0.0 0 0 311.50 132.25
  L 311.50 182.00
  A 0.50 0.42 0.0 0 0 312.00 182.42
  L 364.50 182.73
  A 0.52 0.50 -90.0 0 1 365.00 183.25
  Z
  M 640.30 233.77
  Q 638.96 233.29 640.30 232.80
  C 658.74 226.15 671.53 215.85 674.53 196.20
  C 677.00 180.08 674.47 163.46 663.22 150.98
  Q 645.73 131.59 618.24 131.62
  Q 561.53 131.68 504.98 131.77
  A 0.48 0.48 -0.1 0 0 504.50 132.25
  L 504.50 342.25
  A 0.52 0.46 0.0 0 0 505.02 342.71
  Q 558.51 342.76 611.99 342.76
  Q 626.21 342.76 631.95 341.83
  C 659.31 337.36 679.57 315.33 680.25 287.49
  C 680.85 263.02 670.19 242.34 645.49 235.44
  Q 642.77 234.67 640.30 233.77
  Z
  M 1160.78 322.73
  A 20.75 20.75 0.0 0 0 1140.03 301.98
  A 20.75 20.75 0.0 0 0 1119.28 322.73
  A 20.75 20.75 0.0 0 0 1140.03 343.48
  A 20.75 20.75 0.0 0 0 1160.78 322.73
  Z
  M 236.5272 403.6120
  A 21.95 21.95 0.0 0 0 214.6156 381.6237
  L 210.3956 381.6164
  A 21.95 21.95 0.0 0 0 188.4073 403.5280
  L 188.3928 411.8480
  A 21.95 21.95 0.0 0 0 210.3044 433.8363
  L 214.5244 433.8436
  A 21.95 21.95 0.0 0 0 236.5127 411.9320
  L 236.5272 403.6120
  Z
  M 385.59 403.57
  A 21.95 21.95 0.0 0 0 363.64 381.62
  L 359.40 381.62
  A 21.95 21.95 0.0 0 0 337.45 403.57
  L 337.45 411.89
  A 21.95 21.95 0.0 0 0 359.40 433.84
  L 363.64 433.84
  A 21.95 21.95 0.0 0 0 385.59 411.89
  L 385.59 403.57
  Z
  M 648.8826 403.4581
  A 21.91 21.91 0.0 0 0 626.9344 381.5864
  L 622.7544 381.5937
  A 21.91 21.91 0.0 0 0 600.8827 403.5419
  L 600.8974 412.0019
  A 21.91 21.91 0.0 0 0 622.8456 433.8736
  L 627.0256 433.8663
  A 21.91 21.91 0.0 0 0 648.8973 411.9181
  L 648.8826 403.4581
  Z
  M 145.08 400.53
  C 140.40 425.13 155.69 440.20 180.17 431.64
  A 1.63 1.41 -10.9 0 0 181.26 430.25
  L 181.26 422.75
  A 0.42 0.37 -10.6 0 0 180.71 422.42
  C 174.75 424.53 166.16 426.86 160.70 422.72
  C 155.45 418.73 154.75 409.57 155.71 403.46
  C 157.89 389.48 167.72 388.38 179.10 393.58
  A 0.57 0.52 23.9 0 0 179.85 393.33
  L 182.96 385.73
  A 0.67 0.57 23.7 0 0 182.58 384.95
  C 167.21 377.80 148.65 381.74 145.08 400.53
  Z
  M 471.05 421.73
  L 474.46 432.80
  A 0.87 0.62 -5.9 0 0 475.25 433.25
  L 485.75 433.25
  A 0.44 0.43 79.9 0 0 486.15 432.66
  L 468.45 382.52
  A 0.77 0.73 79.9 0 0 467.75 382.00
  L 455.50 382.00
  A 0.84 0.69 -78.2 0 0 454.81 382.56
  L 437.36 432.33
  Q 437.05 433.24 436.53 432.48
  L 422.51 411.74
  A 0.59 0.52 55.9 0 1 422.61 410.97
  C 427.21 407.84 430.51 405.53 431.23 399.76
  C 433.82 379.07 409.95 382.16 396.76 382.29
  A 0.52 0.46 -0.6 0 0 396.25 382.75
  L 396.25 432.75
  A 0.50 0.50 0.0 0 0 396.75 433.25
  L 406.50 433.25
  A 0.50 0.50 0.0 0 0 407.00 432.75
  L 407.00 414.50
  A 0.75 0.50 -90.0 0 1 407.50 413.75
  L 412.50 413.75
  A 1.29 0.67 65.2 0 1 413.35 414.41
  L 424.55 432.45
  A 1.89 1.66 -13.7 0 0 426.07 433.24
  L 448.00 433.26
  A 0.79 0.73 8.0 0 0 448.74 432.75
  L 452.32 421.57
  A 0.74 0.65 8.2 0 1 453.00 421.12
  L 470.56 421.22
  A 0.71 0.43 77.3 0 1 471.05 421.73
  Z
  M 256.63 433.26
  Q 256.98 433.36 257.33 433.24
  A 0.82 0.60 83.6 0 0 257.75 432.50
  L 257.75 414.50
  A 0.75 0.50 -90.0 0 1 258.25 413.75
  L 263.50 413.75
  A 1.25 0.49 62.9 0 1 264.29 414.45
  L 275.59 432.67
  A 0.92 0.82 72.2 0 0 276.32 433.10
  L 287.25 433.25
  Q 287.95 433.26 287.47 432.54
  L 273.53 411.96
  A 1.00 0.98 59.5 0 1 273.88 410.52
  Q 281.14 406.79 282.22 399.71
  C 285.27 379.80 260.34 381.49 247.58 382.42
  A 0.62 0.58 -2.1 0 0 247.00 383.00
  L 246.95 432.50
  A 0.72 0.54 89.6 0 0 247.50 433.22
  L 255.76 433.12
  Q 256.08 433.12 256.63 433.26
  Z
  M 323.81 385.69
  C 316.32 380.62 303.54 382.17 294.76 382.29
  A 0.52 0.46 -0.6 0 0 294.25 382.75
  L 294.25 432.75
  A 0.50 0.50 0.0 0 0 294.75 433.25
  L 304.50 433.25
  A 0.50 0.50 0.0 0 0 305.00 432.75
  L 305.00 415.50
  A 0.54 0.51 -89.0 0 1 305.53 414.96
  C 312.82 415.31 321.06 415.06 326.00 408.98
  C 331.07 402.73 330.97 390.52 323.81 385.69
  Z
  M 496.75 391.75
  L 496.75 432.75
  A 0.50 0.50 0.0 0 0 497.25 433.25
  L 507.00 433.25
  A 0.50 0.50 0.0 0 0 507.50 432.75
  L 507.50 391.75
  A 0.50 0.50 0.0 0 1 508.00 391.25
  L 521.00 391.25
  A 0.50 0.50 0.0 0 0 521.50 390.75
  L 521.50 382.75
  A 0.50 0.50 0.0 0 0 521.00 382.25
  L 484.00 382.25
  A 0.77 0.51 0.3 0 0 483.23 382.75
  L 483.15 390.81
  A 0.60 0.43 0.4 0 0 483.75 391.25
  L 496.25 391.25
  A 0.50 0.50 0.0 0 1 496.75 391.75
  Z
  M 542.59 391.10
  L 547.75 388.76
  A 0.87 0.82 -12.8 0 0 548.26 388.00
  L 548.34 382.69
  A 0.59 0.43 0.5 0 0 547.75 382.25
  L 525.75 382.25
  A 0.50 0.50 0.0 0 0 525.25 382.75
  L 525.25 388.00
  A 0.84 0.83 12.0 0 0 525.75 388.76
  L 530.74 391.01
  A 0.87 0.78 13.3 0 1 531.25 391.75
  L 531.25 423.75
  A 0.93 0.78 79.9 0 1 530.78 424.56
  L 525.81 426.80
  A 0.93 0.67 -15.8 0 0 525.25 427.50
  L 525.25 432.75
  A 0.75 0.50 0.0 0 0 526.00 433.25
  L 547.75 433.25
  A 0.66 0.43 -0.4 0 0 548.41 432.81
  L 548.35 427.69
  A 0.92 0.85 13.7 0 0 547.83 426.90
  L 542.42 424.35
  A 1.01 0.70 -81.6 0 1 542.00 423.50
  L 542.00 391.75
  A 0.95 0.55 -17.7 0 1 542.59 391.10
  Z
  M 573.74 422.55
  Q 568.24 402.50 561.61 382.79
  A 0.78 0.59 78.1 0 0 561.00 382.26
  L 551.06 382.27
  A 0.36 0.31 79.4 0 0 550.78 382.74
  L 567.73 432.80
  A 0.65 0.50 78.5 0 0 568.25 433.25
  L 579.00 433.25
  A 0.97 0.86 8.4 0 0 579.89 432.67
  L 596.77 383.01
  A 0.58 0.56 -80.5 0 0 596.25 382.25
  L 586.75 382.25
  A 0.76 0.71 8.2 0 0 586.06 382.73
  Q 579.43 402.40 573.90 422.41
  Q 573.80 422.76 573.74 422.55
  Z"
/>
<path fill="#c3c3c5" fill-opacity="0.792" d="
  M 63.04 153.50
  Q 63.10 149.57 64.44 145.90
  C 65.16 143.91 64.85 142.00 65.65 139.95
  A 1.69 0.54 -61.0 0 0 65.84 138.98
  Q 65.19 135.48 66.97 132.53
  Q 67.19 132.18 67.21 131.54
  L 67.56 119.96
  Q 71.04 111.64 75.71 104.00
  L 75.65 104.70
  Q 75.60 105.36 75.96 104.78
  C 76.61 103.71 78.15 100.88 79.76 102.73
  Q 80.63 103.73 79.13 106.66
  Q 74.53 115.73 70.62 125.11
  C 70.00 126.61 70.00 129.09 69.14 130.74
  Q 68.49 131.99 68.31 132.92
  C 67.55 136.65 65.96 140.16 65.52 144.15
  C 65.16 147.51 63.36 149.99 63.04 153.50
  Z"
/>
<path fill="#84848b" fill-opacity="0.576" d="
  M 67.56 119.96
  L 67.21 131.54
  Q 67.19 132.18 66.97 132.53
  Q 65.19 135.48 65.84 138.98
  A 1.69 0.54 -61.0 0 1 65.65 139.95
  C 64.85 142.00 65.16 143.91 64.44 145.90
  Q 63.10 149.57 63.04 153.50
  L 62.96 155.00
  L 62.08 157.56
  C 61.49 155.16 60.64 149.03 62.21 146.42
  Q 62.49 145.95 62.51 145.51
  Q 63.26 132.35 67.56 119.96
  Z"
/>
<path fill="#c3c3c5" fill-opacity="0.792" d="
  M 1210.79 120.25
  Q 1213.18 123.69 1211.96 127.75
  L 1210.79 120.25
  Z"
/>
<path fill="#ffffff" d="
  M 969.74 156.16
  Q 969.70 156.27 969.74 156.50
  Q 976.51 199.90 983.17 243.31
  C 983.97 248.48 985.52 253.17 983.97 257.59
  Q 968.89 300.53 953.86 343.49
  A 0.74 0.74 9.2 0 1 953.18 343.98
  C 929.03 344.61 904.87 343.44 880.74 344.37
  A 0.40 0.39 -80.9 0 1 880.36 343.83
  L 958.49 126.54
  A 0.80 0.74 -79.3 0 1 959.20 126.01
  Q 985.73 125.99 1012.05 126.00
  C 1026.71 126.00 1031.83 130.87 1036.57 144.13
  Q 1075.74 253.76 1114.81 363.44
  C 1120.06 378.16 1124.74 394.21 1110.84 404.75
  C 1100.98 412.24 1085.60 410.88 1072.76 410.80
  Q 1059.29 410.71 1048.05 403.45
  Q 1019.13 384.78 990.28 365.96
  Q 989.38 365.36 990.50 365.36
  L 1042.25 365.25
  A 0.76 0.66 -8.1 0 0 1043.01 364.37
  L 970.13 156.21
  Q 969.93 155.65 969.74 156.16
  Z"
/>
<path fill="#ffffff" d="
  M 789.06 266.82
  C 761.82 260.21 730.83 256.32 712.09 233.17
  C 701.47 220.04 699.40 200.21 702.02 184.01
  C 707.47 150.16 741.58 133.41 772.25 129.97
  C 817.73 124.88 878.08 137.69 876.22 196.50
  A 0.53 0.47 -88.7 0 1 875.75 197.01
  L 817.75 197.04
  A 0.61 0.50 -0.5 0 1 817.14 196.55
  C 816.96 175.56 795.51 173.84 780.24 176.71
  C 771.53 178.35 761.10 185.24 768.48 195.27
  C 773.08 201.53 786.60 204.88 794.01 206.48
  Q 815.16 211.05 830.50 215.00
  C 865.93 224.14 884.67 248.53 879.42 285.48
  C 876.11 308.77 864.20 325.80 842.00 335.45
  C 817.98 345.89 790.69 347.80 765.00 344.21
  C 726.87 338.88 691.96 314.88 696.78 271.52
  A 0.59 0.46 -85.9 0 1 697.25 271.00
  L 755.69 270.99
  A 0.51 0.43 88.6 0 1 756.12 271.48
  C 756.25 274.92 756.15 278.62 757.20 281.76
  C 763.10 299.41 789.52 297.70 803.43 294.41
  C 810.18 292.82 815.47 286.94 813.20 279.79
  C 810.70 271.90 796.56 268.64 789.06 266.82
  Z"
/>
<path fill="#ffffff" d="
  M 203.25 259.74
  L 203.25 291.75
  A 0.50 0.50 0.0 0 0 203.75 292.25
  L 297.50 292.25
  A 0.57 0.50 0.0 0 1 298.07 292.75
  L 297.99 342.25
  A 0.74 0.50 -0.0 0 1 297.25 342.75
  L 140.25 342.75
  A 0.50 0.50 0.0 0 1 139.75 342.25
  L 139.75 132.25
  A 0.50 0.50 0.0 0 1 140.25 131.75
  L 297.50 131.75
  A 0.69 0.52 -90.0 0 1 298.02 132.44
  L 298.01 180.00
  A 0.51 0.50 -0.0 0 1 297.50 180.50
  L 203.75 180.50
  A 0.50 0.50 0.0 0 0 203.25 181.00
  L 203.25 210.75
  A 0.75 0.50 0.0 0 0 204.00 211.25
  L 288.00 211.25
  A 0.75 0.75 0.0 0 1 288.75 212.00
  L 288.75 257.75
  A 0.51 0.50 -90.0 0 1 288.25 258.26
  L 204.94 258.28
  A 1.69 1.46 -0.0 0 0 203.25 259.74
  Z"
/>
<path fill="#ffffff" d="
  M 364.50 182.73
  L 312.00 182.42
  A 0.50 0.42 0.0 0 1 311.50 182.00
  L 311.50 132.25
  A 0.50 0.50 0.0 0 1 312.00 131.75
  L 481.75 131.75
  A 0.68 0.55 90.0 0 1 482.30 132.43
  L 482.37 182.00
  A 0.56 0.31 -90.0 0 1 482.06 182.56
  L 429.50 182.71
  A 0.54 0.54 0.0 0 0 428.96 183.25
  L 428.71 342.31
  A 0.46 0.45 0.6 0 1 428.25 342.75
  L 365.50 342.75
  A 0.50 0.50 0.0 0 1 365.00 342.25
  L 365.00 183.25
  A 0.52 0.50 90.0 0 0 364.50 182.73
  Z"
/>
<path fill="#ffffff" d="
  M 640.30 233.77
  Q 642.77 234.67 645.49 235.44
  C 670.19 242.34 680.85 263.02 680.25 287.49
  C 679.57 315.33 659.31 337.36 631.95 341.83
  Q 626.21 342.76 611.99 342.76
  Q 558.51 342.76 505.02 342.71
  A 0.52 0.46 -0.0 0 1 504.50 342.25
  L 504.50 132.25
  A 0.48 0.48 -0.1 0 1 504.98 131.77
  Q 561.53 131.68 618.24 131.62
  Q 645.73 131.59 663.22 150.98
  C 674.47 163.46 677.00 180.08 674.53 196.20
  C 671.53 215.85 658.74 226.15 640.30 232.80
  Q 638.96 233.29 640.30 233.77
  Z
  M 597.08 212.71
  C 606.45 212.66 614.44 207.70 614.62 197.50
  C 614.84 184.69 610.92 177.20 597.18 176.84
  C 586.29 176.56 575.43 177.10 564.49 176.66
  A 0.71 0.60 1.4 0 0 563.75 177.25
  L 563.75 212.25
  A 0.54 0.46 0.0 0 0 564.29 212.71
  Q 580.73 212.81 597.08 212.71
  Z
  M 609.49 292.28
  C 623.48 286.11 621.36 257.86 603.24 257.78
  Q 583.79 257.70 564.29 257.79
  A 0.54 0.46 0.0 0 0 563.75 258.25
  L 563.75 293.25
  A 0.53 0.47 -0.0 0 0 564.28 293.72
  Q 581.29 293.75 598.30 293.76
  Q 606.13 293.77 609.49 292.28
  Z"
/>
<path fill="#c3c3c5" fill-opacity="0.792" d="
  M 62.96 155.00
  Q 63.35 158.35 62.29 161.50
  L 62.08 157.56
  L 62.96 155.00
  Z"
/>
<path fill="#1d120e" d="
  M 614.62 197.50
  C 614.44 207.70 606.45 212.66 597.08 212.71
  Q 580.73 212.81 564.29 212.71
  A 0.54 0.46 0.0 0 1 563.75 212.25
  L 563.75 177.25
  A 0.71 0.60 1.4 0 1 564.49 176.66
  C 575.43 177.10 586.29 176.56 597.18 176.84
  C 610.92 177.20 614.84 184.69 614.62 197.50
  Z"
/>
<path fill="#1d120e" d="
  M 603.24 257.78
  C 621.36 257.86 623.48 286.11 609.49 292.28
  Q 606.13 293.77 598.30 293.76
  Q 581.29 293.75 564.28 293.72
  A 0.53 0.47 0.0 0 1 563.75 293.25
  L 563.75 258.25
  A 0.54 0.46 -0.0 0 1 564.29 257.79
  Q 583.79 257.70 603.24 257.78
  Z"
/>
<path fill="#ffffff" d="
  M 1160.78 322.73
  A 20.75 20.75 0.0 0 1 1140.03 343.48
  A 20.75 20.75 0.0 0 1 1119.28 322.73
  A 20.75 20.75 0.0 0 1 1140.03 301.98
  A 20.75 20.75 0.0 0 1 1160.78 322.73
  Z
  M 1157.16 322.71
  A 17.13 17.13 0.0 0 0 1140.03 305.58
  A 17.13 17.13 0.0 0 0 1122.90 322.71
  A 17.13 17.13 0.0 0 0 1140.03 339.84
  A 17.13 17.13 0.0 0 0 1157.16 322.71
  Z"
/>
<path fill="#1d120e" d="
  M 1157.16 322.71
  A 17.13 17.13 0.0 0 1 1140.03 339.84
  A 17.13 17.13 0.0 0 1 1122.90 322.71
  A 17.13 17.13 0.0 0 1 1140.03 305.58
  A 17.13 17.13 0.0 0 1 1157.16 322.71
  Z
  M 1142.76 324.49
  Q 1150.24 320.98 1147.22 313.87
  C 1145.07 308.80 1136.32 309.86 1131.57 310.12
  A 0.63 0.60 88.6 0 0 1131.00 310.75
  L 1131.00 334.50
  A 0.58 0.44 87.1 0 0 1131.50 335.09
  Q 1132.78 334.89 1133.99 335.25
  A 0.70 0.41 -85.8 0 0 1134.50 334.50
  L 1134.50 325.75
  A 0.70 0.70 -4.3 0 1 1135.10 325.06
  C 1140.89 324.17 1142.79 329.96 1145.06 334.53
  A 1.04 0.66 72.1 0 0 1145.76 335.11
  L 1148.75 335.24
  A 0.49 0.44 77.5 0 0 1149.14 334.55
  C 1148.00 332.13 1145.02 326.10 1142.76 324.91
  Q 1142.33 324.69 1142.76 324.49
  Z"
/>
<path fill="#ffffff" d="
  M 1142.76 324.91
  C 1145.02 326.10 1148.00 332.13 1149.14 334.55
  A 0.49 0.44 77.5 0 1 1148.75 335.24
  L 1145.76 335.11
  A 1.04 0.66 72.1 0 1 1145.06 334.53
  C 1142.79 329.96 1140.89 324.17 1135.10 325.06
  A 0.70 0.70 -4.3 0 0 1134.50 325.75
  L 1134.50 334.50
  A 0.70 0.41 -85.8 0 1 1133.99 335.25
  Q 1132.78 334.89 1131.50 335.09
  A 0.58 0.44 87.1 0 1 1131.00 334.50
  L 1131.00 310.75
  A 0.63 0.60 88.6 0 1 1131.57 310.12
  C 1136.32 309.86 1145.07 308.80 1147.22 313.87
  Q 1150.24 320.98 1142.76 324.49
  Q 1142.33 324.69 1142.76 324.91
  Z
  M 1135.52 320.94
  Q 1139.21 321.33 1142.83 320.37
  A 1.50 1.16 -76.9 0 0 1143.63 319.72
  C 1147.05 313.88 1138.80 313.59 1135.08 314.14
  A 0.64 0.54 -6.6 0 0 1134.53 314.72
  L 1134.81 320.32
  A 0.80 0.64 2.3 0 0 1135.52 320.94
  Z"
/>
<path fill="#1d120e" d="
  M 1134.81 320.32
  L 1134.53 314.72
  A 0.64 0.54 -6.6 0 1 1135.08 314.14
  C 1138.80 313.59 1147.05 313.88 1143.63 319.72
  A 1.50 1.16 -76.9 0 1 1142.83 320.37
  Q 1139.21 321.33 1135.52 320.94
  A 0.80 0.64 2.3 0 1 1134.81 320.32
  Z"
/>
<path fill="#ffffff" d="
  M 236.5127 411.9320
  A 21.95 21.95 0.0 0 1 214.5244 433.8436
  L 210.3044 433.8363
  A 21.95 21.95 0.0 0 1 188.3928 411.8480
  L 188.4073 403.5280
  A 21.95 21.95 0.0 0 1 210.3956 381.6164
  L 214.6156 381.6237
  A 21.95 21.95 0.0 0 1 236.5272 403.6120
  L 236.5127 411.9320
  Z
  M 204.94 422.56
  C 210.57 426.36 219.85 425.69 223.02 418.88
  C 226.76 410.82 227.01 393.04 215.51 391.00
  Q 204.85 389.12 201.02 398.22
  C 198.41 404.41 198.74 418.38 204.94 422.56
  Z"
/>
<path fill="#ffffff" d="
  M 385.59 411.89
  A 21.95 21.95 0.0 0 1 363.64 433.84
  L 359.40 433.84
  A 21.95 21.95 0.0 0 1 337.45 411.89
  L 337.45 403.57
  A 21.95 21.95 0.0 0 1 359.40 381.62
  L 363.64 381.62
  A 21.95 21.95 0.0 0 1 385.59 403.57
  L 385.59 411.89
  Z
  M 349.29 413.73
  C 350.68 421.34 355.51 425.80 363.50 424.66
  Q 371.81 423.46 373.44 415.24
  C 375.12 406.76 375.44 393.14 364.76 391.02
  C 349.67 388.04 347.30 402.84 349.29 413.73
  Z"
/>
<path fill="#ffffff" d="
  M 648.8973 411.9181
  A 21.91 21.91 0.0 0 1 627.0256 433.8663
  L 622.8456 433.8736
  A 21.91 21.91 0.0 0 1 600.8974 412.0019
  L 600.8827 403.5419
  A 21.91 21.91 0.0 0 1 622.7544 381.5937
  L 626.9344 381.5864
  A 21.91 21.91 0.0 0 1 648.8826 403.4581
  L 648.8973 411.9181
  Z
  M 617.43 422.56
  C 622.33 425.80 632.01 425.86 635.04 419.96
  C 640.23 409.85 639.53 387.62 621.87 390.76
  C 610.35 392.80 610.70 411.16 614.28 418.89
  Q 615.33 421.17 617.43 422.56
  Z"
/>
<path fill="#ffffff" d="
  M 180.17 431.64
  C 155.69 440.20 140.40 425.13 145.08 400.53
  C 148.65 381.74 167.21 377.80 182.58 384.95
  A 0.67 0.57 23.7 0 1 182.96 385.73
  L 179.85 393.33
  A 0.57 0.52 23.9 0 1 179.10 393.58
  C 167.72 388.38 157.89 389.48 155.71 403.46
  C 154.75 409.57 155.45 418.73 160.70 422.72
  C 166.16 426.86 174.75 424.53 180.71 422.42
  A 0.42 0.37 -10.6 0 1 181.26 422.75
  L 181.26 430.25
  A 1.63 1.41 -10.9 0 1 180.17 431.64
  Z"
/>
<path fill="#ffffff" d="
  M 470.56 421.22
  L 453.00 421.12
  A 0.74 0.65 8.2 0 0 452.32 421.57
  L 448.74 432.75
  A 0.79 0.73 8.0 0 1 448.00 433.26
  L 426.07 433.24
  A 1.89 1.66 -13.7 0 1 424.55 432.45
  L 413.35 414.41
  A 1.29 0.67 65.2 0 0 412.50 413.75
  L 407.50 413.75
  A 0.75 0.50 -90.0 0 0 407.00 414.50
  L 407.00 432.75
  A 0.50 0.50 0.0 0 1 406.50 433.25
  L 396.75 433.25
  A 0.50 0.50 0.0 0 1 396.25 432.75
  L 396.25 382.75
  A 0.52 0.46 -0.6 0 1 396.76 382.29
  C 409.95 382.16 433.82 379.07 431.23 399.76
  C 430.51 405.53 427.21 407.84 422.61 410.97
  A 0.59 0.52 55.9 0 0 422.51 411.74
  L 436.53 432.48
  Q 437.05 433.24 437.36 432.33
  L 454.81 382.56
  A 0.84 0.69 -78.2 0 1 455.50 382.00
  L 467.75 382.00
  A 0.77 0.73 79.9 0 1 468.45 382.52
  L 486.15 432.66
  A 0.44 0.43 79.9 0 1 485.75 433.25
  L 475.25 433.25
  A 0.87 0.62 -5.9 0 1 474.46 432.80
  L 471.05 421.73
  A 0.71 0.43 77.3 0 0 470.56 421.22
  Z
  M 461.57 391.23
  L 455.42 411.34
  A 0.52 0.39 -79.3 0 0 455.75 412.00
  L 467.75 412.00
  A 0.57 0.39 78.0 0 0 468.05 411.28
  L 461.85 391.23
  Q 461.71 390.77 461.57 391.23
  Z
  M 416.06 392.00
  Q 412.12 390.54 407.77 391.42
  A 0.63 0.56 85.5 0 0 407.32 392.01
  L 407.09 404.25
  A 0.63 0.56 -88.1 0 0 407.62 404.89
  C 411.66 405.13 417.05 404.99 419.51 401.45
  C 422.10 397.71 420.27 393.56 416.06 392.00
  Z"
/>
<path fill="#ffffff" d="
  M 255.76 433.12
  L 247.50 433.22
  A 0.72 0.54 89.6 0 1 246.95 432.50
  L 247.00 383.00
  A 0.62 0.58 -2.1 0 1 247.58 382.42
  C 260.34 381.49 285.27 379.80 282.22 399.71
  Q 281.14 406.79 273.88 410.52
  A 1.00 0.98 59.5 0 0 273.53 411.96
  L 287.47 432.54
  Q 287.95 433.26 287.25 433.25
  L 276.32 433.10
  A 0.92 0.82 72.2 0 1 275.59 432.67
  L 264.29 414.45
  A 1.25 0.49 62.9 0 0 263.50 413.75
  L 258.25 413.75
  A 0.75 0.50 -90.0 0 0 257.75 414.50
  L 257.75 432.50
  A 0.82 0.60 83.6 0 1 257.33 433.24
  Q 256.98 433.36 256.63 433.26
  Q 256.08 433.12 255.76 433.12
  Z
  M 271.31 397.34
  C 271.12 391.04 263.13 390.60 258.48 391.40
  A 0.63 0.58 86.2 0 0 258.00 392.00
  L 258.00 404.50
  A 0.51 0.45 -0.6 0 0 258.52 404.95
  C 264.02 404.83 271.54 405.19 271.31 397.34
  Z"
/>
<path fill="#ffffff" d="
  M 323.81 385.69
  C 330.97 390.52 331.07 402.73 326.00 408.98
  C 321.06 415.06 312.82 415.31 305.53 414.96
  A 0.54 0.51 -89.0 0 0 305.00 415.50
  L 305.00 432.75
  A 0.50 0.50 0.0 0 1 304.50 433.25
  L 294.75 433.25
  A 0.50 0.50 0.0 0 1 294.25 432.75
  L 294.25 382.75
  A 0.52 0.46 -0.6 0 1 294.76 382.29
  C 303.54 382.17 316.32 380.62 323.81 385.69
  Z
  M 315.81 392.69
  Q 311.35 390.22 305.72 391.41
  A 0.61 0.59 84.1 0 0 305.25 392.00
  L 305.25 405.50
  A 0.58 0.46 3.3 0 0 305.78 405.97
  C 309.52 406.33 315.11 406.14 317.40 402.74
  C 319.18 400.09 318.88 394.39 315.81 392.69
  Z"
/>
<path fill="#ffffff" d="
  M 496.25 391.25
  L 483.75 391.25
  A 0.60 0.43 0.4 0 1 483.15 390.81
  L 483.23 382.75
  A 0.77 0.51 0.3 0 1 484.00 382.25
  L 521.00 382.25
  A 0.50 0.50 0.0 0 1 521.50 382.75
  L 521.50 390.75
  A 0.50 0.50 0.0 0 1 521.00 391.25
  L 508.00 391.25
  A 0.50 0.50 0.0 0 0 507.50 391.75
  L 507.50 432.75
  A 0.50 0.50 0.0 0 1 507.00 433.25
  L 497.25 433.25
  A 0.50 0.50 0.0 0 1 496.75 432.75
  L 496.75 391.75
  A 0.50 0.50 0.0 0 0 496.25 391.25
  Z"
/>
<path fill="#ffffff" d="
  M 542.00 391.75
  L 542.00 423.50
  A 1.01 0.70 -81.6 0 0 542.42 424.35
  L 547.83 426.90
  A 0.92 0.85 13.7 0 1 548.35 427.69
  L 548.41 432.81
  A 0.66 0.43 -0.4 0 1 547.75 433.25
  L 526.00 433.25
  A 0.75 0.50 0.0 0 1 525.25 432.75
  L 525.25 427.50
  A 0.93 0.67 -15.8 0 1 525.81 426.80
  L 530.78 424.56
  A 0.93 0.78 79.9 0 0 531.25 423.75
  L 531.25 391.75
  A 0.87 0.78 13.3 0 0 530.74 391.01
  L 525.75 388.76
  A 0.84 0.83 12.0 0 1 525.25 388.00
  L 525.25 382.75
  A 0.50 0.50 0.0 0 1 525.75 382.25
  L 547.75 382.25
  A 0.59 0.43 0.5 0 1 548.34 382.69
  L 548.26 388.00
  A 0.87 0.82 -12.8 0 1 547.75 388.76
  L 542.59 391.10
  A 0.95 0.55 -17.7 0 0 542.00 391.75
  Z"
/>
<path fill="#ffffff" d="
  M 573.90 422.41
  Q 579.43 402.40 586.06 382.73
  A 0.76 0.71 8.2 0 1 586.75 382.25
  L 596.25 382.25
  A 0.58 0.56 -80.5 0 1 596.77 383.01
  L 579.89 432.67
  A 0.97 0.86 8.4 0 1 579.00 433.25
  L 568.25 433.25
  A 0.65 0.50 78.5 0 1 567.73 432.80
  L 550.78 382.74
  A 0.36 0.31 79.4 0 1 551.06 382.27
  L 561.00 382.26
  A 0.78 0.59 78.1 0 1 561.61 382.79
  Q 568.24 402.50 573.74 422.55
  Q 573.80 422.76 573.90 422.41
  Z"
/>
<path fill="#1d120e" d="
  M 204.94 422.56
  C 198.74 418.38 198.41 404.41 201.02 398.22
  Q 204.85 389.12 215.51 391.00
  C 227.01 393.04 226.76 410.82 223.02 418.88
  C 219.85 425.69 210.57 426.36 204.94 422.56
  Z"
/>
<path fill="#1d120e" d="
  M 363.50 424.66
  C 355.51 425.80 350.68 421.34 349.29 413.73
  C 347.30 402.84 349.67 388.04 364.76 391.02
  C 375.44 393.14 375.12 406.76 373.44 415.24
  Q 371.81 423.46 363.50 424.66
  Z"
/>
<path fill="#1d120e" d="
  M 461.57 391.23
  Q 461.71 390.77 461.85 391.23
  L 468.05 411.28
  A 0.57 0.39 78.0 0 1 467.75 412.00
  L 455.75 412.00
  A 0.52 0.39 -79.3 0 1 455.42 411.34
  L 461.57 391.23
  Z"
/>
<path fill="#1d120e" d="
  M 617.43 422.56
  Q 615.33 421.17 614.28 418.89
  C 610.70 411.16 610.35 392.80 621.87 390.76
  C 639.53 387.62 640.23 409.85 635.04 419.96
  C 632.01 425.86 622.33 425.80 617.43 422.56
  Z"
/>
<path fill="#1d120e" d="
  M 258.48 391.40
  C 263.13 390.60 271.12 391.04 271.31 397.34
  C 271.54 405.19 264.02 404.83 258.52 404.95
  A 0.51 0.45 -0.6 0 1 258.00 404.50
  L 258.00 392.00
  A 0.63 0.58 86.2 0 1 258.48 391.40
  Z"
/>
<path fill="#1d120e" d="
  M 315.81 392.69
  C 318.88 394.39 319.18 400.09 317.40 402.74
  C 315.11 406.14 309.52 406.33 305.78 405.97
  A 0.58 0.46 3.3 0 1 305.25 405.50
  L 305.25 392.00
  A 0.61 0.59 84.1 0 1 305.72 391.41
  Q 311.35 390.22 315.81 392.69
  Z"
/>
<path fill="#1d120e" d="
  M 416.06 392.00
  C 420.27 393.56 422.10 397.71 419.51 401.45
  C 417.05 404.99 411.66 405.13 407.62 404.89
  A 0.63 0.56 -88.1 0 1 407.09 404.25
  L 407.32 392.01
  A 0.63 0.56 85.5 0 1 407.77 391.42
  Q 412.12 390.54 416.06 392.00
  Z"
/>
</svg>
